<?xml version="1.0" encoding="UTF-8" standalone="no"?>
<!-- Created with Inkscape (http://www.inkscape.org/) -->

<svg
   version="1.1"
   id="svg1"
   width="520"
   height="520"
   viewBox="0 0 520 520"
   sodipodi:docname="JumperlessRoundLogo.svg"
   inkscape:version="1.4 (e7c3feb1, 2024-10-09)"
   xmlns:inkscape="http://www.inkscape.org/namespaces/inkscape"
   xmlns:sodipodi="http://sodipodi.sourceforge.net/DTD/sodipodi-0.dtd"
   xmlns="http://www.w3.org/2000/svg"
   xmlns:svg="http://www.w3.org/2000/svg">
  <defs
     id="defs1" />
  <sodipodi:namedview
     id="namedview1"
     pagecolor="#ffffff"
     bordercolor="#000000"
     borderopacity="0.25"
     inkscape:showpageshadow="2"
     inkscape:pageopacity="0.0"
     inkscape:pagecheckerboard="0"
     inkscape:deskcolor="#d1d1d1"
     inkscape:zoom="1.2217016"
     inkscape:cx="264.79461"
     inkscape:cy="309.81379"
     inkscape:window-width="1600"
     inkscape:window-height="1742"
     inkscape:window-x="0"
     inkscape:window-y="1929"
     inkscape:window-maximized="1"
     inkscape:current-layer="svg1" />
  <g
     inkscape:groupmode="layer"
     inkscape:label="Image"
     id="g1">
    <g
       id="g2">
      <path
         style="fill:#dede2f"
         d="m 103.18981,380.63 c -5.77575,-7.82104 -10.672979,-15.49165 -15.239568,-23.87 -1.934216,-3.54872 -4.142847,-7.94246 -5.921532,-11.78 -0.408956,-0.88233 -1.636484,-3.60323 -1.736919,-3.85 -0.01627,-0.04 9.10933,-0.05 45.548979,-0.05 h 45.56934 l -20.27506,20.29716 -20.27505,20.29716 -13.44739,0.003 -13.44739,0.003 z M 191,361.38 l 20.29997,-20.3 45.38002,8e-5 45.38001,7e-5 0.92,0.86375 c 2.70638,2.54089 6.2928,5.35834 9.48,7.44736 0.55,0.3605 1.117,0.73641 1.26,0.83536 1.15961,0.80243 3.23694,2.1477 3.76,2.43496 0.165,0.0906 0.552,0.31848 0.86,0.50636 1.45863,0.88975 3.8293,2.24091 5.6,3.19169 2.8845,1.54886 4.63813,2.42027 5.78522,2.8748 0.16787,0.0665 0.50087,0.21427 0.74,0.32833 0.23913,0.11406 0.99278,0.43733 1.67478,0.71838 0.682,0.28105 1.474,0.61346 1.76,0.73869 1.4578,0.63834 9.53042,3.84634 10.62,4.22031 0.209,0.0717 0.65,0.23784 0.98,0.36913 0.33,0.13129 0.81156,0.30927 1.07014,0.39552 0.25857,0.0862 0.80757,0.28881 1.22,0.45015 0.41242,0.16133 0.92986,0.35213 1.14986,0.42398 0.43216,0.14115 3.84366,1.55091 4.25253,1.75731 0.13697,0.0691 0.6041,0.27125 1.03808,0.44913 0.43397,0.17787 0.88812,0.37342 1.00922,0.43454 0.65691,0.33157 3.19728,1.46641 3.80017,1.69761 0.385,0.14765 0.808,0.3232 0.94,0.39013 0.132,0.0669 0.753,0.33341 1.38,0.59221 1.23535,0.50989 2.37968,1.00875 3.59049,1.56524 0.42377,0.19477 0.92777,0.41494 1.12,0.48926 0.19223,0.0743 1.19551,0.558 2.22951,1.07483 2.04045,1.01988 2.29214,1.12864 4.68,2.02221 1.79212,0.67063 2.44252,0.89025 3.46,1.16831 1.22921,0.33593 1.67466,0.40093 3.56545,0.52029 0.712,0.045 1.58255,0.10736 1.93455,0.1387 0.86392,0.0769 1.13915,0.0954 2.12,0.14245 1.03202,0.0495 2.90649,0.18036 3.74,0.26106 1.20241,0.11642 6.12507,0.77908 7.7,1.03653 0.80279,0.13123 1.36377,0.2008 2.58,0.31996 2.43048,0.23812 3.63776,0.28648 8.02835,0.32156 3.19586,0.0255 4.55829,0.065 6.27165,0.18168 1.20418,0.082 1.77253,0.13898 1.96654,0.19716 0.0624,0.0187 -54.70188,0.0356 -121.76653,0.0375 l -121.87998,0.003 z m 241.30925,20.25 c 0.1332,-0.17056 1.95255,-2.69369 2.53096,-3.51 4.59452,-6.48432 8.53964,-12.783 12.46205,-19.89659 0.6796,-1.23251 0.87416,-1.50318 1.08088,-1.50371 0.0643,-1.7e-4 0.80086,0.1693 1.63686,0.37659 0.836,0.20729 1.745,0.42432 2.02,0.48228 0.275,0.058 0.671,0.15744 0.88,0.22105 0.58265,0.17735 1.08512,0.27928 1.87865,0.3811 0.23174,0.0297 0.53835,0.0811 0.68135,0.11409 0.143,0.033 0.494,0.0877 0.78,0.12161 0.64312,0.0762 0.78176,0.11244 1.70224,0.44532 l 0.73776,0.2668 0.63656,0.0364 c 0.35011,0.02 0.74788,0.0622 0.88393,0.0937 0.13605,0.0316 0.46159,0.094 0.72344,0.13866 0.26184,0.0447 0.76407,0.1721 1.11607,0.28309 0.66051,0.20826 1.55922,0.3958 2.78,0.58012 0.385,0.0581 0.826,0.13989 0.98,0.1817 0.154,0.0418 0.49153,0.11211 0.75007,0.15623 0.44605,0.0761 1.80149,0.43246 3.42993,0.90175 0.407,0.11729 1.19363,0.33219 1.74808,0.47755 1.59439,0.41802 2.52545,0.77163 3.23408,1.22827 0.72478,0.46704 0.82166,0.49852 1.70376,0.55355 0.87014,0.0543 1.26656,0.10464 1.58226,0.20097 0.13649,0.0417 0.49649,0.10439 0.8,0.13943 0.3035,0.035 0.72282,0.0984 0.93182,0.14082 0.43799,0.0889 0.99188,0.14528 1.76,0.17919 0.88917,0.0393 1.39674,0.0967 1.84,0.2083 0.57024,0.14353 1.15175,0.14318 1.96704,-0.001 0.69798,-0.12358 1.60427,-0.17285 3.81296,-0.2073 1.73779,-0.0271 2.71634,-0.0768 3.21379,-0.16303 0.37188,-0.0645 1.97842,-0.51821 2.40621,-0.67955 0.143,-0.0539 0.44,-0.19758 0.66,-0.31923 0.63171,-0.3493 0.89166,-0.46098 1.31795,-0.56624 0.43919,-0.10845 0.57963,-0.17095 0.96516,-0.42951 0.14349,-0.0962 0.38149,-0.22439 0.52889,-0.28479 0.7257,-0.29736 1.03811,-0.43538 1.61768,-0.71464 1.14306,-0.55078 1.4554,-0.6426 2.31032,-0.67912 0.275,-0.0117 0.63504,-0.0424 0.80009,-0.0682 0.36356,-0.0567 0.61401,-0.0132 1.67337,0.29055 1.58608,0.45481 2.35976,0.85474 2.91166,1.50508 0.43307,0.51031 0.45904,0.61717 0.85793,3.52882 l 0.20549,1.5 0.0327,3.36 c 0.0263,2.70945 0.0447,3.43958 0.0949,3.77102 0.1572,1.03845 0.76139,3.8275 1.12407,5.18898 0.19497,0.73191 0.52689,1.83587 0.58634,1.95019 0.0348,0.0668 -0.56219,0.0697 -12.575,0.06 L 485.5,381.66 l -0.38,-0.15377 c -0.71059,-0.28755 -1.01937,-0.39159 -1.50607,-0.50745 -0.26734,-0.0636 -0.79834,-0.217 -1.18,-0.34081 -1.28152,-0.41573 -3.12925,-0.83622 -4.21393,-0.95898 -0.308,-0.0349 -0.686,-0.0907 -0.84,-0.12412 -1.32606,-0.2877 -3.42664,-0.48882 -4.30703,-0.41237 -0.53993,0.0469 -0.88685,0.13858 -1.64814,0.43562 -0.34391,0.13418 -0.68212,0.25534 -0.75157,0.26923 -0.17977,0.036 -0.66096,0.50674 -0.85469,0.83621 -0.0872,0.14832 -0.2253,0.42419 -0.30686,0.61305 l -0.14828,0.34339 -12.82487,0.0101 -12.82487,0.0101 -0.26932,-0.1182 c -0.50893,-0.22337 -0.71843,-0.23663 -1.58437,-0.10027 -0.198,0.0312 -0.71509,0.0931 -1.14909,0.13752 -0.73259,0.075 -1.06301,0.0808 -4.61489,0.0808 -3.05481,0 -3.81795,-0.0101 -3.78677,-0.05 z M 444.6,355.77715 c -0.30861,-0.0986 -0.79796,-0.17064 -1.46132,-0.21518 -0.68657,-0.0461 -0.90408,-0.0905 -1.27868,-0.26078 -0.53801,-0.24461 -0.71135,-0.28665 -1.74,-0.42199 -0.67101,-0.0883 -1.11795,-0.16605 -1.4737,-0.2564 -0.12447,-0.0316 -0.8473,-0.17716 -1.6063,-0.32345 -0.759,-0.14628 -1.80668,-0.36342 -2.32817,-0.48253 -0.5215,-0.11911 -1.2775,-0.27026 -1.68,-0.33588 -0.83077,-0.13545 -1.23188,-0.23723 -1.96628,-0.49892 -0.76894,-0.27401 -1.33006,-0.41134 -2.21115,-0.5412 -0.43692,-0.0644 -1.1274,-0.18169 -1.5344,-0.26067 -0.87636,-0.17005 -1.50707,-0.27283 -3.19748,-0.52102 -0.69161,-0.10155 -1.498,-0.2276 -1.79198,-0.28011 -0.29398,-0.0525 -0.84412,-0.12401 -1.22252,-0.1589 -0.37841,-0.0349 -0.97162,-0.0899 -1.31824,-0.12229 -0.47386,-0.0442 -0.82623,-0.10739 -1.42023,-0.25449 -0.96322,-0.23853 -1.26176,-0.26961 -3.08955,-0.3216 -2.1248,-0.0604 -2.57935,-0.0934 -3.6,-0.26107 -0.7903,-0.12982 -1.37114,-0.19808 -3.08,-0.36196 -2.06608,-0.19814 -4.12827,-0.41124 -4.47819,-0.46276 -0.92032,-0.13551 -2.67272,-0.84651 -3.45544,-1.40197 -0.2235,-0.15861 -0.91037,-0.66871 -1.52637,-1.13354 -0.616,-0.46483 -1.318,-0.98123 -1.56,-1.14756 -0.44008,-0.30246 -1.86711,-1.14067 -3.26,-1.91486 -1.0542,-0.58595 -1.3411,-0.74585 -2.04,-1.13697 -0.88796,-0.49693 -1.86801,-0.96891 -2.71467,-1.30736 l -0.73467,-0.29369 31.65131,-0.01 c 17.40822,-0.006 31.65917,-0.002 31.66878,0.007 0.0369,0.0369 -0.9909,2.36035 -1.92089,4.34259 -1.34341,2.86341 -4.06886,8.37221 -4.7549,9.61077 -0.4609,0.83212 -0.48397,0.85127 -0.87496,0.72638 z"
         id="path11" />
      <path
         style="fill:#f7bb18"
         d="m 143.67421,421.63248 c -2.45754,-1.8629 -6.03339,-4.71276 -6.95421,-5.54232 l -0.18,-0.16217 2.63947,-2.65399 c 1.45171,-1.4597 9.14574,-9.16551 17.09784,-17.12403 l 14.45838,-14.47002 121.98215,0.01 121.98216,0.01 0.42,0.14606 c 0.62231,0.21642 1.74527,0.65236 2.36807,0.9193 0.70526,0.30228 0.90599,0.33186 2.03193,0.29933 0.98881,-0.0286 1.39599,0.0151 1.98649,0.21292 0.59664,0.19989 0.69044,0.17731 1.23451,-0.29719 0.51542,-0.44952 0.77982,-0.53655 1.879,-0.61851 0.83319,-0.0621 1.21659,-0.10951 1.67447,-0.20694 0.24282,-0.0517 0.48207,-0.0776 0.62232,-0.0675 0.25261,0.0183 0.87946,0.25617 0.91431,0.34699 0.047,0.12239 -0.15042,0.39359 -2.01784,2.77244 -10.69543,13.62465 -23.74261,26.43645 -37.21669,36.54531 L 387.89313,422.28 H 266.21078 144.52843 Z M 515.78,415.37667 c -0.97571,-0.15064 -1.46784,-0.37775 -2.42,-1.11677 -0.77592,-0.60223 -1.20071,-0.99871 -1.45702,-1.3599 -0.1996,-0.28128 -0.93762,-1.70355 -1.18311,-2.28 -0.0937,-0.22 -0.53518,-1.489 -0.9811,-2.82 -0.89346,-2.66682 -1.125,-3.26175 -1.79808,-4.62 -0.44705,-0.90212 -1.43012,-2.68499 -1.69831,-3.08 -0.54092,-0.79672 -1.56073,-2.04308 -2.66742,-3.26 -0.29011,-0.319 -0.77587,-0.877 -1.07947,-1.24 -0.30359,-0.363 -0.80918,-0.912 -1.12352,-1.22 -0.31434,-0.308 -0.86413,-0.90965 -1.22175,-1.33699 -0.42561,-0.50858 -0.8644,-0.97804 -1.27022,-1.35901 -0.341,-0.32011 -1.16336,-1.1068 -1.82748,-1.74819 -1.33506,-1.2894 -1.97044,-1.86054 -2.7033,-2.43001 -0.26907,-0.20908 -0.67833,-0.55692 -0.90947,-0.77297 -0.54797,-0.51222 -0.57509,-0.53269 -1.69975,-1.28324 -0.528,-0.35236 -1.122,-0.76211 -1.32,-0.91057 -0.64534,-0.48385 -0.95267,-0.68739 -1.4098,-0.93366 -0.83149,-0.44796 -1.78746,-1.03799 -2.14805,-1.3258 -0.41546,-0.33161 -0.50391,-0.38207 -0.88215,-0.50331 l -0.28,-0.0897 12.50378,-0.003 12.50378,-0.003 0.80805,2.43 c 0.44442,1.3365 0.96116,2.81471 1.1483,3.28491 0.18715,0.47021 0.36847,0.96521 0.40293,1.1 0.1161,0.454 0.36612,0.90198 1.8446,3.30509 1.05154,1.70917 1.14829,1.85529 1.78762,2.7 0.55044,0.72727 1.74561,2.51313 1.94176,2.90145 0.30988,0.61348 0.41364,1.13204 0.47992,2.39855 0.0236,0.451 0.10447,1.315 0.1797,1.92 0.20131,1.61889 0.22182,1.95483 0.24662,4.04 0.0427,3.58807 -0.0821,5.46703 -0.46761,7.04175 -0.1821,0.74379 -0.24089,0.91304 -0.38101,1.09675 -0.0541,0.071 -0.0984,0.15666 -0.0984,0.19041 0,0.0874 -0.47306,0.58683 -0.82066,0.86646 -0.33624,0.27049 -0.59314,0.38004 -1.03557,0.44157 -0.38061,0.0529 -0.50677,0.0503 -0.96377,-0.0203 z M 115.5,395.55174 c -0.21298,-0.0745 -0.3637,-0.21864 -1.11068,-1.06249 -3.14914,-3.55761 -6.39507,-7.52359 -9.62173,-11.75613 -0.42217,-0.55379 -0.76759,-1.01729 -0.76759,-1.03 0,-0.0127 6.04331,-0.0231 13.42957,-0.0231 h 13.42957 l -0.69957,0.7035 c -1.5684,1.57721 -8.09421,8.02616 -9.08063,8.97369 -2.95414,2.83768 -4.30765,3.95187 -5.0762,4.17869 -0.24641,0.0727 -0.33231,0.0754 -0.50274,0.0159 z m 349.63218,-9.51444 c -0.23946,-0.0189 -0.59541,-0.0927 -1.02,-0.21149 -0.94676,-0.2648 -2.35992,-0.56453 -4.17218,-0.88492 -0.44,-0.0778 -0.881,-0.15946 -0.98,-0.18149 -0.099,-0.022 -0.47984,-0.0745 -0.8463,-0.11666 -0.43112,-0.0496 -0.92528,-0.14049 -1.4,-0.25761 -0.84674,-0.2089 -3.50718,-0.78126 -4.2137,-0.90652 -0.264,-0.0468 -1.632,-0.32478 -3.04,-0.61773 -2.61992,-0.54511 -3.70239,-0.75811 -4.57547,-0.90033 -0.27251,-0.0444 -0.64151,-0.12117 -0.82,-0.17063 L 443.74,381.7 l 12.7966,-0.0101 c 7.03814,-0.006 12.80305,-0.004 12.81091,0.004 0.0849,0.0849 -1.09295,2.63085 -1.41397,3.0564 -0.0934,0.12381 -0.43173,0.32938 -0.54221,0.32945 -0.13357,8e-5 -0.56446,0.25681 -0.87133,0.51915 -0.51134,0.43712 -0.68938,0.49333 -1.38782,0.43812 z m -30.13273,-4.08961 c -0.0113,-0.0122 -0.6413,-0.0429 -1.4,-0.0683 -0.7587,-0.0254 -1.38652,-0.0532 -1.39515,-0.0618 -0.009,-0.009 0.007,-0.0431 0.0349,-0.0766 0.0447,-0.0538 0.48045,-0.061 3.71236,-0.061 2.01398,0 3.65421,0.008 3.64496,0.0168 -0.009,0.009 -0.48475,0.0365 -1.05667,0.0605 -0.57192,0.024 -1.28285,0.0708 -1.57985,0.10403 -0.57277,0.064 -1.92595,0.12358 -1.96055,0.0863 z"
         id="path10" />
      <path
         style="fill:#64a4c2"
         d="m 63.441757,258.11 c 0.0019,-1.97395 0.05284,-4.29793 0.09519,-4.34028 0.106514,-0.10652 3.552354,0.0986 7.22305,0.43 0.957,0.0864 2.046,0.17669 2.42,0.20066 0.374,0.024 0.779,0.0604 0.9,0.0809 0.121,0.0205 1.399,0.12782 2.84,0.23847 1.441,0.11064 2.989,0.23687 3.44,0.28049 0.451,0.0436 1.369,0.13239 2.04,0.19725 2.863349,0.27681 3.697185,0.33181 6.42,0.4235 0.99,0.0333 2.43,0.0874 3.2,0.12009 2.569601,0.10918 3.310651,0.13767 4.68,0.17993 1.527929,0.0472 1.847486,0.0734 2.9,0.2381 1.04517,0.16354 1.40821,0.19834 2.51979,0.24152 1.71861,0.0668 3.52354,0.0503 4.28021,-0.0391 0.89489,-0.10569 1.43244,-0.15035 2.68,-0.22264 0.583,-0.0338 1.546,-0.10504 2.14,-0.15835 0.594,-0.0533 1.341,-0.11661 1.66,-0.14067 0.738,-0.0556 2.23982,-0.2145 3.22,-0.34059 0.75774,-0.0975 1.56127,-0.24809 2.7436,-0.51427 0.79504,-0.17899 1.60575,-0.32116 2.4164,-0.42375 0.82253,-0.10409 1.35803,-0.19221 2.6834,-0.44155 1.52138,-0.28621 2.78361,-0.60483 4.5966,-1.16029 0.67025,-0.20535 3.2539,-0.70101 4.47997,-0.85946 0.26398,-0.0341 0.99298,-0.0789 1.62,-0.0996 2.13109,-0.0702 2.58832,-0.11666 4.18003,-0.42453 1.30021,-0.25148 1.82803,-0.33505 2.76,-0.43698 0.506,-0.0553 1.001,-0.11788 1.1,-0.13897 0.099,-0.0211 0.459,-0.0664 0.8,-0.10071 0.341,-0.0343 0.79498,-0.0886 1.00883,-0.12062 0.21386,-0.032 0.60986,-0.0772 0.88,-0.10044 0.27015,-0.0232 0.85117,-0.10368 1.29117,-0.17887 0.89219,-0.15247 2.48603,-0.37854 3.4,-0.48224 0.64582,-0.0733 1.82512,-0.0613 2.33483,0.0238 0.42808,0.0714 0.6744,0.247 0.89681,0.63922 0.21343,0.37637 0.24212,1.0688 0.0721,1.74 -0.0869,0.34322 -0.45662,1.11249 -0.77673,1.6163 -0.10614,0.16703 -0.29821,0.51209 -0.42684,0.76678 -0.25403,0.503 -0.34502,0.60426 -0.81645,0.9087 -0.37082,0.23946 -1.24209,0.68822 -1.33619,0.68822 -0.0771,0 -0.21983,0.13484 -0.25789,0.24363 -0.0555,0.15864 0.0749,0.20255 0.88167,0.29692 1.16993,0.13686 2.08978,0.007 3.21748,-0.45385 0.89701,-0.36665 1.34568,-0.67518 2.27588,-1.56497 1.27327,-1.21798 2.78062,-2.84498 3.41419,-3.68522 0.50792,-0.6736 0.67242,-0.94892 0.99945,-1.67281 0.40521,-0.89693 0.79096,-1.44795 1.32228,-1.88876 0.40472,-0.33578 0.71621,-0.46455 1.33939,-0.5537 0.77722,-0.11119 1.53366,-0.16577 2.41177,-0.17402 l 0.76823,-0.007 0.28533,0.14815 c 0.36556,0.18981 0.74981,0.50037 1.48496,1.20016 1.13221,1.07777 1.76601,1.62226 2.94971,2.53405 0.198,0.15252 0.756,0.61757 1.24,1.03345 1.02226,0.87839 1.96407,1.60623 4.24,3.27671 1.13916,0.83612 2.34098,1.82097 3.24,2.65505 0.47268,0.43854 1.46209,1.47068 1.93871,2.02243 l 0.12958,0.15 H 122.66414 63.44 Z m 229.718333,1.06 c 0.42757,-0.4345 9.53196,-9.5605 20.23198,-20.28 l 19.45458,-19.49 h 16.09667 c 13.55399,0 16.09668,0.009 16.09668,0.0545 0,0.03 0.12522,0.30446 0.27826,0.61 0.26609,0.53126 0.30811,0.58963 0.96136,1.33554 0.58856,0.67204 1.35584,1.63194 1.99817,2.49979 0.0978,0.13211 0.38737,0.56421 0.64353,0.96021 0.25616,0.396 0.68133,1.053 0.94482,1.46 1.06904,1.65125 2.65978,4.34537 3.21205,5.44 0.4115,0.81562 1.84815,3.79634 2.11107,4.38 0.0991,0.22 0.30245,0.688 0.45189,1.04 0.14943,0.352 0.33885,0.784 0.42093,0.96 0.30716,0.65867 1.14759,3.41432 1.43952,4.72 0.0787,0.352 0.23106,0.99436 0.33858,1.42747 0.19043,0.76709 0.50831,2.52791 0.60161,3.33253 0.0255,0.22 0.0482,0.571 0.0505,0.78 0.004,0.37128 -7.9e-4,0.39193 -0.2087,0.9 -0.29702,0.72586 -0.29143,0.69605 -0.22075,1.17807 0.15471,1.05501 0.71838,3.52169 1.05336,4.60963 0.13064,0.42428 0.17137,0.68211 0.26354,1.66829 0.0743,0.79474 0.1155,0.98194 0.41929,1.90401 0.22396,0.67975 0.36099,1.15644 0.36099,1.25577 0,0.0323 -11.86024,0.0442 -43.88865,0.0442 H 292.3827 Z M 414.12,259.93544 c 0,-0.0135 -0.0444,-0.28801 -0.0986,-0.61 -0.28081,-1.66752 -0.34543,-2.21175 -0.44237,-3.72544 -0.10827,-1.69063 -0.19563,-2.17316 -0.6373,-3.52 -0.36819,-1.12278 -0.42114,-1.4775 -0.4578,-3.06665 -0.029,-1.25708 -0.0319,-1.29101 -0.12735,-1.47643 -0.20067,-0.38994 -0.74888,-0.6526 -1.77659,-0.8512 -0.74283,-0.14354 -1.24039,-0.18898 -2.7,-0.24654 -0.583,-0.023 -1.258,-0.0594 -1.5,-0.0809 -0.25961,-0.0231 -1.18617,-0.0293 -2.26,-0.0152 -1.001,0.0131 -2.252,0.006 -2.78,-0.0154 -0.86899,-0.0355 -0.98465,-0.0486 -1.22,-0.13793 -1.25006,-0.47465 -2.84677,-1.6475 -3.42307,-2.51438 -0.42571,-0.64036 -1.72364,-3.81688 -2.52326,-6.17538 -0.60603,-1.7875 -1.18493,-3.92101 -1.38924,-5.12 -0.14437,-0.84727 -0.42438,-3.33535 -0.46591,-4.14 -0.0244,-0.473 -0.0544,-2.23777 -0.0667,-3.92171 -0.0212,-2.90798 -0.009,-3.5059 0.0951,-4.64829 l 0.0246,-0.27 h 36.30953 36.30953 l 0.3645,1.85 c 0.57962,2.94191 0.8435,4.46595 1.40074,8.09 0.55058,3.58066 0.86881,6.08072 1.222,9.6 0.53259,5.30681 0.79816,9.24854 0.9419,13.98 0.041,1.35039 0.11824,5.57879 0.11962,6.55 l 6.9e-4,0.49 h -27.46 c -15.103,0 -27.46,-0.011 -27.46,-0.0246 z M 25.56,257.29506 c -0.405076,-0.0487 -0.821639,-0.1602 -1.27487,-0.34129 -0.521519,-0.20836 -1.268589,-0.41055 -3.16513,-0.85662 -0.605,-0.14229 -1.541,-0.37432 -2.08,-0.51561 -1.122015,-0.29412 -1.28226,-0.32508 -2.7,-0.52156 -1.666073,-0.2309 -1.900447,-0.30016 -2.233647,-0.66005 -0.290293,-0.31355 -0.360929,-0.52485 -0.339471,-1.01547 0.01406,-0.32143 0.0343,-0.40566 0.162238,-0.67505 0.23461,-0.49402 0.600387,-0.82941 0.904564,-0.82941 0.06688,0 0.132533,-0.0177 0.145901,-0.0393 0.01337,-0.0216 -0.04747,-0.14503 -0.135205,-0.27422 -0.22081,-0.32516 -0.803331,-1.41846 -1.072299,-2.01254 -0.249998,-0.55219 -0.313822,-0.89154 -0.267781,-1.42378 0.02973,-0.3437 -0.01734,-0.44414 -0.268122,-0.57208 -0.684523,-0.34922 -2.510697,-0.45121 -6.316178,-0.35276 -1.155,0.0299 -2.649,0.0541 -3.32,0.0537 -1.2188605,-6.4e-4 -1.2202838,-7.4e-4 -1.5238549,-0.10747 C 1.6370894,246.99716 1.2990282,246.78419 0.98,246.46099 0.60223251,246.07828 0.42167151,245.74075 0.42311653,245.42 c 0.001484,-0.32945 0.13199665,-0.61223 0.38935429,-0.84362 C 1.3358376,244.10583 1.5631501,244.05335 3.4,243.97902 c 1.8236463,-0.0738 2.1375579,-0.11918 3.18,-0.45965 0.6757916,-0.22072 0.8695802,-0.25649 1.72,-0.31753 0.9419532,-0.0676 1.3008342,-0.11749 1.766641,-0.24556 0.36448,-0.10022 0.550975,-0.12507 1.173359,-0.1564 1.160202,-0.0584 1.52,-0.0876 1.52,-0.12334 0,-0.0182 -0.1215,-0.0689 -0.27,-0.11259 -3.6513416,-1.07428 -4.4781795,-1.30296 -5.0705709,-1.40234 -1.2349232,-0.20717 -2.396694,-0.65722 -2.8434004,-1.10148 C 4.2535694,239.73944 3.88,238.90436 3.88,238.50423 c 0,-0.17262 0.1410563,-0.4374 0.344578,-0.6468 0.3496196,-0.35974 0.9328734,-0.53071 1.5646157,-0.45866 0.3877025,0.0442 0.6422304,0.10887 1.2589403,0.31979 0.7360598,0.25173 1.4882772,0.36705 2.871866,0.44029 0.987891,0.0523 1.26167,0.089 2.102443,0.28184 0.857836,0.19676 1.361657,0.27894 1.711274,0.27915 0.555914,3.3e-4 1.82931,0.32573 4.886283,1.24866 2.157635,0.6514 2.505266,0.74752 3.73654,1.03311 1.322,0.30664 1.701049,0.3695 2.64346,0.43839 1.156602,0.0845 1.658006,0.17712 2.284386,0.42177 0.357147,0.1395 0.527823,0.18572 1.335614,0.36172 0.678908,0.14792 1.012413,0.25957 1.9,0.63611 2.01017,0.85276 3.899683,1.41039 6.72,1.98319 0.809271,0.16437 0.833714,0.16681 1.868137,0.18654 1.205972,0.023 1.492227,-0.002 2.611863,-0.2296 0.929605,-0.18884 1.490891,-0.3451 1.841761,-0.51273 0.328839,-0.15711 0.845537,-0.2605 1.943571,-0.38888 1.02186,-0.11948 1.61398,-0.23228 2.414668,-0.46001 0.498428,-0.14177 1.151893,-0.29907 1.84,-0.44292 0.099,-0.0207 0.571281,-0.0826 1.049514,-0.13751 1.336084,-0.15346 4.481769,-0.76114 6.690486,-1.29246 0.638,-0.15348 1.844,-0.44396 2.68,-0.64552 1.634372,-0.39405 2.587951,-0.60508 2.614442,-0.57859 0.0091,0.009 -0.05787,0.88556 -0.148801,1.94771 -0.276035,3.22431 -0.435979,5.62682 -0.543987,8.17118 -0.08629,2.03267 -0.113439,2.32531 -0.240711,2.59434 -0.118037,0.24951 -0.31262,0.43822 -0.578911,0.56143 -0.165895,0.0768 -0.252951,0.0842 -0.982032,0.0842 -0.44,0 -2.078,-0.0255 -3.64,-0.0566 -2.35809,-0.047 -3.406754,-0.0483 -6.18,-0.008 -3.666718,0.0537 -3.766716,0.0573 -7.2,0.26206 -2.510152,0.14971 -3.235588,0.19887 -3.92,0.26565 -0.386718,0.0377 -1.499107,0.25031 -2.32,0.44334 -0.509411,0.11978 -1.89547,0.59274 -2.62,0.894 -0.950829,0.39536 -1.587139,0.63389 -2.5,0.93717 -1.43724,0.47749 -1.853537,0.57144 -3.48,0.78537 -0.476573,0.0627 -2.530106,0.11393 -2.88,0.0719 z m 239.0293,-11.48425 c -1.02574,-1.08352 -2.50492,-2.5519 -3.68823,-3.6613 -0.42801,-0.40129 -0.83343,-0.81908 -0.93157,-0.96 -0.0956,-0.13723 -0.31931,-0.531 -0.49721,-0.87503 -0.2973,-0.57492 -0.43553,-0.78663 -0.86662,-1.32726 -0.22187,-0.27825 -0.49339,-0.74702 -0.90774,-1.56722 -0.40665,-0.80495 -0.59177,-1.23172 -0.81748,-1.88469 -0.21913,-0.63391 -0.30641,-0.78563 -0.77629,-1.34939 -0.46662,-0.55984 -0.59741,-0.76133 -0.68445,-1.0544 -0.0724,-0.24387 -0.59044,-1.07553 -1.04114,-1.67152 -0.18301,-0.242 -0.59704,-0.719 -0.92007,-1.06 -0.32303,-0.341 -0.71467,-0.791 -0.8703,-1 -0.15564,-0.209 -0.35735,-0.46119 -0.44824,-0.56042 -0.0909,-0.0992 -0.23081,-0.28292 -0.31095,-0.40819 -0.0801,-0.12528 -0.33995,-0.45809 -0.57736,-0.73958 -0.97447,-1.15542 -1.41553,-1.85403 -1.57788,-2.49922 -0.0911,-0.3621 -0.18963,-0.57632 -0.52647,-1.14482 -0.1213,-0.20473 -0.29625,-0.54673 -0.38876,-0.76 -0.19089,-0.44003 -0.23348,-0.51898 -0.88808,-1.6464 -0.26142,-0.45025 -0.59849,-0.99025 -0.74904,-1.2 -0.15056,-0.20976 -0.36566,-0.52987 -0.47802,-0.71137 l -0.20427,-0.33 h 23.27041 23.27042 l -13.49998,13.50252 c -7.42499,7.42639 -13.60184,13.59175 -13.72634,13.7008 l -0.22636,0.19829 z M 64.376247,239.95 c 0.01525,-0.2035 0.09917,-1.036 0.186495,-1.85 0.639905,-5.96498 1.574586,-12.08083 2.708135,-17.72 l 0.192973,-0.96 24.81242,-0.01 24.81242,-0.01 -0.026,0.11003 c -0.0376,0.15895 -0.50575,0.84152 -0.73569,1.07263 -0.10802,0.10857 -0.23412,0.27189 -0.28022,0.36294 -0.21341,0.42145 -0.92262,1.16491 -1.53097,1.6049 -0.17278,0.12496 -0.30089,0.24045 -0.28469,0.25665 0.0401,0.0401 0.83509,0.11291 1.22891,0.11257 0.176,-1.4e-4 0.437,-0.0191 0.58,-0.042 0.38684,-0.0621 1.46751,-0.39158 1.72446,-0.5257 0.29982,-0.15651 0.68723,-0.48455 0.95154,-0.80573 0.33415,-0.40604 1.05058,-1.4591 1.23875,-1.82079 l 0.1693,-0.32541 h 9.28252 9.28251 l -0.0341,0.19 c -0.0398,0.22208 -0.0377,0.5825 0.005,0.88155 0.0382,0.26639 -0.0336,0.72774 -0.17589,1.12972 -0.11618,0.3283 -0.59727,1.23726 -0.85481,1.61503 -0.12238,0.17952 -0.1516,0.25161 -0.12158,0.3 0.0633,0.10198 0.2227,0.16149 0.56071,0.20929 0.26534,0.0375 0.35085,0.0344 0.53591,-0.0194 0.43861,-0.12751 0.63551,0.032 0.63551,0.51482 0,0.26881 -0.0748,0.78231 -0.12257,0.84113 -0.0188,0.0232 -0.0799,0.30748 -0.13572,0.63175 -0.0558,0.32427 -0.1276,0.64012 -0.15955,0.70189 -0.15604,0.30175 -0.58702,0.53528 -1.30259,0.70583 -0.83065,0.19798 -1.17552,0.29055 -1.47801,0.39672 -0.16414,0.0576 -0.66151,0.19375 -1.10525,0.30254 -0.44375,0.10878 -0.95745,0.25393 -1.14156,0.32256 -0.18411,0.0686 -0.52375,0.19042 -0.75475,0.27066 -0.231,0.0802 -0.654,0.27518 -0.94,0.43322 -0.63121,0.34881 -0.50177,0.29765 -1.74,0.68775 -1.42856,0.45007 -1.75423,0.53155 -2.19735,0.54979 -0.41457,0.0171 -0.43111,0.0241 -0.78238,0.33147 -0.38287,0.33504 -0.5464,0.39016 -1.42027,0.47874 -0.25331,0.0257 -0.45614,0.0725 -0.60838,0.14049 -0.1256,0.0561 -0.56415,0.18415 -0.97455,0.2846 -0.4104,0.10045 -0.84763,0.22466 -0.97163,0.27603 -0.36903,0.15289 -0.68003,0.24399 -2.04544,0.59912 -1.55637,0.4048 -2.03589,0.51337 -2.94227,0.66616 -2.43985,0.41127 -4.92395,0.60775 -8.83773,0.69901 -3.28425,0.0766 -6.3635,0.25695 -8.2,0.48034 -0.264,0.0321 -0.804,0.076 -1.2,0.0975 -0.933404,0.0507 -2.8669,0.25413 -4.04,0.42515 -0.22,0.0321 -0.94,0.0751 -1.6,0.0957 -1.820658,0.0568 -2.183624,0.0953 -4.54,0.48163 -6.947489,1.13916 -7.860909,1.29921 -9,1.57698 -0.297,0.0724 -0.72,0.16359 -0.94,0.2026 -0.22,0.039 -0.661,0.12338 -0.98,0.18748 -0.319,0.0641 -1.039,0.20513 -1.6,0.31337 -0.561,0.10824 -2.064,0.45725 -3.34,0.77556 -2.65438,0.66217 -2.962173,0.7334 -5.2,1.20336 -0.902,0.18943 -2.242293,0.47839 -2.978429,0.64213 -0.736135,0.16374 -1.400218,0.29771 -1.475739,0.29771 h -0.13731 z"
         id="path9" />
      <path
         style="fill:#df4a98"
         d="m 104.46614,137.61 c 4.17462,-5.47475 8.03064,-10.08547 12.6702,-15.15 1.48046,-1.61606 2.02512,-2.11976 2.26186,-2.09174 0.0976,0.0115 0.10069,0.0234 0.19048,0.73174 0.0502,0.396 0.1453,0.927 0.21137,1.18 0.0661,0.253 0.17499,0.667 0.24206,0.92 0.0734,0.27677 0.13787,0.6512 0.1619,0.94 0.022,0.264 0.0676,0.579 0.10141,0.7 0.0868,0.31069 0.50835,1.11141 0.72991,1.38643 0.31496,0.39095 0.75747,0.68271 1.20888,0.79705 0.37692,0.0955 1.40499,0.7399 1.69831,1.06457 0.15909,0.1761 0.45748,0.76861 0.45748,0.90843 0,0.17704 -0.59888,0.40677 -1.31928,0.50608 -1.08949,0.15019 -1.3446,0.36473 -1.76521,1.48451 -0.23349,0.62162 -0.35229,0.84798 -0.55551,1.05847 -0.20543,0.21278 -0.42626,0.29345 -1.2578,0.45948 -0.68472,0.13671 -0.9022,0.26432 -0.9022,0.52938 0,0.10215 0.19457,0.27312 0.38882,0.34165 0.53517,0.18882 1.99248,0.18144 2.96252,-0.015 0.48988,-0.0992 0.64927,-0.18215 1.05156,-0.54719 0.41915,-0.38035 0.669,-0.50198 1.08002,-0.52577 0.37505,-0.0217 0.4462,0.0129 0.58169,0.28336 0.0575,0.11471 0.13396,0.24193 0.16995,0.28272 0.0826,0.0936 0.0849,0.43805 0.0124,1.80584 -0.074,1.39605 -8e-4,2.42493 0.23417,3.29045 0.0434,0.15974 0.0789,0.29924 0.0789,0.31 0,0.0108 -4.77107,0.0196 -10.60238,0.0196 h -10.60237 z m 26.18234,0.26 c -0.34263,-0.86431 -0.41718,-1.44641 -0.47001,-3.67 -0.0138,-0.583 -0.0409,-1.24 -0.06,-1.46 -0.0288,-0.33123 -0.0249,-0.40758 0.023,-0.44411 0.0318,-0.0243 0.39546,-0.1295 0.80819,-0.23387 1.14584,-0.28973 1.8673,-0.54065 2.56515,-0.89213 l 0.61474,-0.30962 0.44604,-0.0142 c 0.24845,-0.008 0.51851,0.005 0.60966,0.0299 0.21925,0.059 0.47826,0.29493 0.71464,0.65085 0.48392,0.72866 1.23341,1.68169 1.83281,2.33055 0.3749,0.40583 0.78704,0.73507 1.4738,1.17734 0.41836,0.26942 0.40087,0.2429 0.49136,0.74525 0.0473,0.26269 0.22178,2.20243 0.22216,2.47 2e-5,0.0165 -2.04948,0.03 -4.55445,0.03 h -4.55449 z m 24.27163,0.28028 c 2.2e-4,-0.25418 0.0893,-0.85533 0.1793,-1.21028 0.0502,-0.198 0.26217,-0.819 0.47101,-1.38 0.51353,-1.37948 0.69499,-1.97166 0.64646,-2.10965 -0.099,-0.28151 -0.54067,-0.33951 -1.13688,-0.14929 -0.96906,0.30918 -1.87062,0.97223 -2.37585,1.74733 -0.3158,0.48448 -0.84248,1.57438 -1.03865,2.14936 -0.0933,0.27331 -0.18965,0.50363 -0.21422,0.51182 -0.0246,0.008 -0.1575,-0.17061 -0.29539,-0.39734 -0.20101,-0.33052 -0.33809,-0.49548 -0.69158,-0.83223 -1.06518,-1.01475 -1.4522,-1.42529 -1.62492,-1.72368 -0.28263,-0.48826 -1.18848,-1.33711 -1.79939,-1.68616 -0.25745,-0.1471 -0.48135,-0.21414 -1.25316,-0.37521 -0.37561,-0.0784 -0.79881,-0.17832 -0.94046,-0.22207 -0.19643,-0.0607 -0.26466,-0.068 -0.28754,-0.031 -0.07,0.11323 -0.84578,-0.11026 -2.03008,-0.58479 -0.93507,-0.37467 -1.09853,-0.46819 -1.80876,-1.03487 -0.319,-0.25453 -0.814,-0.62864 -1.1,-0.83137 -0.6198,-0.43934 -1.09525,-0.89724 -1.37096,-1.32033 -0.24634,-0.37803 -0.61793,-1.09803 -0.75434,-1.46161 -0.13954,-0.37193 -0.40173,-0.83662 -0.58302,-1.03329 -0.0862,-0.0935 -0.25518,-0.21113 -0.3907,-0.27195 -0.6734,-0.3022 -1.06029,-0.15513 -2.56607,0.97548 -1.23875,0.93011 -1.59982,1.12358 -2.55491,1.36902 -0.59865,0.15384 -1.18091,0.19118 -1.47221,0.0944 -0.31726,-0.10538 -0.5753,-0.36248 -0.72521,-0.72257 -0.30213,-0.72575 -0.96766,-1.66626 -1.41983,-2.00646 -0.65291,-0.49123 -1.54358,-0.87656 -2.43859,-1.055 -0.77437,-0.15439 -0.91322,-0.21175 -1.26667,-0.5232 -0.35049,-0.30885 -0.53216,-0.58112 -0.59739,-0.89536 -0.0228,-0.11 -0.0579,-0.686 -0.0778,-1.28 -0.0444,-1.32218 -0.0774,-1.47464 -0.49742,-2.3 -0.40475,-0.79541 -0.61465,-1.41011 -0.68663,-2.0109 -0.0251,-0.2098 -0.0175,-0.24635 0.0836,-0.4 0.2747,-0.4176 3.87281,-3.9244 6.63931,-6.47081 4.1709,-3.83909 8.81686,-7.75105 13.3989,-11.282052 1.5366,-1.184132 2.31277,-1.769265 2.28299,-1.721082 -0.0205,0.03311 6.68977,0.04484 25.63955,0.04484 21.02246,0 25.66094,-0.0094 25.63236,-0.05188 -0.0192,-0.02854 -0.001,-0.01504 0.0395,0.03 0.0409,0.04504 0.28929,0.318235 0.55189,0.607108 0.45568,0.501266 2.37426,2.388267 3.59149,3.532377 0.80283,0.75461 2.49369,2.82486 2.74386,3.35952 0.0574,0.12259 0.19179,0.35788 0.29874,0.52288 0.21855,0.33719 0.71232,1.23612 0.97773,1.78 0.33641,0.68937 0.89593,2.00163 0.95564,2.24132 0.0645,0.25904 0.6473,2.11115 1.12601,3.57868 0.16147,0.495 0.32374,1.044 0.3606,1.22 0.0368,0.176 0.11745,0.509 0.17911,0.74 0.0616,0.231 0.15064,0.627 0.19775,0.88 0.11754,0.63124 0.40113,1.84263 0.68357,2.92 0.12976,0.495 0.26519,1.062 0.30095,1.26 0.0358,0.198 0.17918,0.837 0.3187,1.42 0.53847,2.25005 0.65452,3.26206 0.43124,3.76064 -0.11021,0.24612 -0.42797,0.54246 -1.26015,1.17525 -0.38965,0.29629 -0.85204,0.65558 -1.02754,0.79843 -0.1755,0.14285 -0.5317,0.38611 -0.79155,0.54058 -0.77465,0.46048 -1.5161,1.06637 -2.30784,1.88587 -0.71866,0.74386 -1.0367,1.22584 -1.6253,2.46316 -0.17688,0.37184 -0.37191,0.77507 -0.4334,0.89607 l -0.11179,0.22 -0.65105,0.25258 c -0.35808,0.13892 -0.86076,0.30922 -1.11707,0.37846 -0.41963,0.11335 -0.52373,0.12603 -1.04601,0.12742 -0.51735,0.001 -0.60087,-0.008 -0.77318,-0.0876 -0.44591,-0.20579 -0.63725,-0.46273 -0.78259,-1.05084 -0.20668,-0.83635 -0.19486,-1.09292 0.1161,-2.52 0.32083,-1.47242 0.34342,-1.63131 0.2831,-1.9916 -0.12113,-0.72349 -0.86873,-3.48532 -1.16235,-4.29405 -0.15844,-0.43638 -0.24881,-0.57399 -0.79749,-1.21435 -0.24506,-0.286 -0.50794,-0.61 -0.5842,-0.72 -0.13338,-0.19242 -0.49242,-1.06882 -0.6596,-1.61009 -0.11226,-0.36347 -0.29366,-2.12831 -0.26208,-2.54991 0.0657,-0.87702 0.0673,-1.0027 0.0151,-1.16 -0.0647,-0.19493 -0.14404,-0.20398 -0.25195,-0.0288 -0.0445,0.0722 -0.22893,0.34219 -0.40994,0.6 -0.38096,0.54259 -0.56462,0.88006 -0.84416,1.55119 -0.32856,0.78878 -0.49423,1.46233 -0.64384,2.61756 -0.16832,1.29975 -0.1975,2.25341 -0.10311,3.3708 0.0973,1.15127 0.0145,1.6018 -0.45701,2.4872 -0.45275,0.85022 -0.86901,2.00528 -1.18279,3.282 -0.16561,0.67383 -0.22536,1.02407 -0.33948,1.98986 -0.1262,1.06806 -0.57981,1.88835 -1.37211,2.48131 -0.61264,0.4585 -0.99773,0.60581 -1.58839,0.60765 -0.52319,0.002 -0.73169,-0.0758 -1.0741,-0.39882 -0.50789,-0.47914 -1.11073,-1.40993 -1.4119,-2.18 -0.30376,-0.77669 -0.39944,-1.53319 -0.31618,-2.5 0.0944,-1.09626 0.30719,-1.88596 0.78344,-2.90768 0.40503,-0.86893 0.5227,-1.17588 0.61555,-1.60574 0.0467,-0.21638 0.11367,-0.45938 0.14874,-0.54 0.0351,-0.0806 0.0783,-0.29058 0.096,-0.46658 0.039,-0.387 -0.0211,-1.41194 -0.10551,-1.79936 -0.17971,-0.82492 -0.21801,-1.03655 -0.25716,-1.42064 -0.0585,-0.57394 -0.11524,-0.84759 -0.17217,-0.83022 -0.0731,0.0223 -0.22892,0.3777 -0.27416,0.62544 -0.0226,0.12363 -0.0971,0.40478 -0.16567,0.62478 -0.12265,0.39367 -0.1247,0.41393 -0.12965,1.28 -0.006,1.01295 -0.0459,1.21539 -0.36019,1.81845 -0.30802,0.59101 -0.67657,1.05761 -1.51703,1.9206 -0.44,0.4518 -0.82009,0.86634 -0.84465,0.9212 -0.0246,0.0549 -0.1723,0.36975 -0.32831,0.69975 -0.41664,0.88128 -0.60708,1.61368 -0.607,2.33442 5e-5,0.43958 0.0974,1.80422 0.16034,2.24831 0.0232,0.1635 0.0866,0.40833 0.14087,0.54406 0.20997,0.5249 0.33875,1.29084 0.33875,2.01481 0,0.77732 -0.12576,1.13485 -0.5695,1.61911 l -0.23759,0.25929 h -2.55327 -2.55327 l -0.0286,-0.26701 c -0.0376,-0.35164 0.006,-0.95027 0.0998,-1.37299 0.0416,-0.187 0.10685,-0.51073 0.14509,-0.71939 0.0383,-0.20867 0.12184,-0.55967 0.18577,-0.78 0.0639,-0.22034 0.1685,-0.62561 0.23239,-0.90061 0.0639,-0.275 0.1614,-0.608 0.21672,-0.74 0.0553,-0.132 0.10099,-0.294 0.10152,-0.36 0.001,-0.12915 0.35037,-1.16406 0.47617,-1.41065 0.042,-0.0824 0.0977,-0.2307 0.12378,-0.32957 0.026,-0.0989 0.26011,-0.59378 0.52015,-1.09978 0.7378,-1.43566 0.81331,-1.66962 0.8841,-2.73924 0.0901,-1.36185 -0.10792,-2.90452 -0.48961,-3.81395 -0.15642,-0.3727 -0.34083,-0.88461 -0.39152,-1.08681 -0.0221,-0.088 -0.11256,-0.25631 -0.20112,-0.37402 C 177.04843,122.13634 177,122.03209 177,121.93938 c 0,-0.0771 -0.0653,-0.25575 -0.15597,-0.42696 -0.16982,-0.32052 -0.2856,-0.77258 -0.46302,-1.80789 -0.11647,-0.67962 -0.12874,-1.08659 -0.061,-2.02453 0.0556,-0.77056 0.17627,-1.29612 0.45909,-2 0.28235,-0.70273 0.4483,-0.95591 0.80017,-1.22073 0.32826,-0.24706 0.46573,-0.39382 0.58155,-0.62083 0.15049,-0.29499 0.26753,-0.34787 1.6792,-0.75877 0.517,-0.15048 1.093,-0.32978 1.28,-0.39845 0.187,-0.0687 0.46467,-0.16903 0.61704,-0.22304 0.29379,-0.10414 0.46296,-0.19736 0.46296,-0.25511 0,-0.16521 -2.82454,-0.36025 -3.5479,-0.24499 -0.59236,0.0944 -1.21527,0.37681 -2.2921,1.03922 -0.63163,0.38855 -0.97161,0.6533 -1.44148,1.12251 -0.60329,0.60242 -0.76239,0.84808 -1.1752,1.81457 -0.56456,1.32177 -0.66029,1.79011 -0.84333,4.12562 -0.13659,1.74283 -0.2484,2.27805 -0.57512,2.75292 -0.19181,0.27878 -0.61674,0.44381 -1.28487,0.499 -0.50058,0.0413 -0.59494,0.0255 -0.62271,-0.10444 -0.0552,-0.25839 -0.14555,-0.49544 -0.25725,-0.67514 -0.0838,-0.13477 -0.14357,-0.31443 -0.19731,-0.59286 -0.1107,-0.57356 -0.16787,-0.7193 -0.5154,-1.31369 -0.10104,-0.17282 -0.23853,-0.35526 -0.30552,-0.40543 -0.16712,-0.12515 -0.45763,-0.26766 -0.49658,-0.24359 -0.0176,0.0109 -0.0154,0.14206 0.005,0.29151 0.0203,0.14945 0.029,0.90172 0.0193,1.67172 -0.02,1.59094 -0.0383,1.71164 -0.36194,2.39487 -0.19058,0.40232 -0.3615,0.62246 -0.60038,0.77326 -0.24625,0.15544 -0.4777,0.38468 -1.08222,1.07187 -0.30966,0.352 -0.84304,0.928 -1.1853,1.28 -0.70227,0.72225 -1.10337,1.18998 -1.67519,1.95343 -0.83578,1.11587 -1.9888,2.89376 -2.39618,3.69476 -0.43525,0.85579 -0.56447,1.33261 -0.66988,2.47181 -0.0346,0.374 -0.13918,1.13 -0.23238,1.68 l -0.16947,1 -2.68826,0.0103 -2.68825,0.0103 z m 50.09023,0.0397 c 0.0971,-0.44445 0.25917,-0.948 0.39587,-1.23 0.0907,-0.187 0.27596,-0.58351 0.4118,-0.88114 0.34292,-0.75135 0.5924,-1.10975 0.82122,-1.17975 0.15317,-0.0469 0.30597,-0.17502 0.38613,-0.32387 0.0401,-0.0744 0.10024,-0.13526 0.13374,-0.13529 0.0335,-3e-5 0.1149,-0.0468 0.1809,-0.10385 0.066,-0.0571 0.18868,-0.13904 0.27262,-0.1821 0.0839,-0.0431 0.18744,-0.13732 0.23,-0.20945 0.0426,-0.0721 0.14881,-0.18857 0.23611,-0.25872 0.0873,-0.0702 0.28893,-0.28467 0.44807,-0.4767 0.63473,-0.76592 1.68739,-1.88827 1.73056,-1.84511 0.0387,0.0387 0.1044,0.60347 0.22299,1.91598 0.14282,1.58084 0.32967,3.40467 0.44047,4.29945 0.0436,0.3517 0.0792,0.6532 0.0792,0.67 0,0.0168 -1.3521,0.0306 -3.00466,0.0306 h -3.00467 z m 19.55209,-0.3 c -0.10706,-0.44743 -0.61674,-2.30502 -1.08927,-3.97 -0.46998,-1.65595 -0.83645,-2.87287 -1.82496,-6.06 -1.2556,-4.04827 -1.64392,-5.39251 -2.06833,-7.16 -0.14792,-0.616 -0.32861,-1.309 -0.40154,-1.54 -0.20726,-0.65648 -0.37833,-1.35506 -0.37833,-1.54496 0,-0.21697 0.10476,-0.49566 0.5098,-1.35616 0.17633,-0.37461 0.35244,-0.77961 0.39135,-0.9 0.0389,-0.12038 0.12207,-0.34897 0.1848,-0.50797 0.0627,-0.159 0.11423,-0.357 0.11444,-0.44 2.2e-4,-0.083 0.0454,-0.24757 0.10038,-0.3657 0.055,-0.11814 0.11928,-0.34314 0.14284,-0.5 0.0236,-0.15687 0.0954,-0.39463 0.15962,-0.52837 0.0642,-0.13374 0.11677,-0.28577 0.11677,-0.33785 0,-0.0521 0.0433,-0.15866 0.0962,-0.23684 0.0529,-0.0782 0.11551,-0.23569 0.13912,-0.35001 0.0561,-0.27157 0.34969,-0.93571 0.54118,-1.2242 0.0833,-0.12554 0.34256,-0.39656 0.57737,-0.60363 0.58147,-0.51279 1.0451,-0.99728 1.22674,-1.28194 0.20918,-0.32783 0.4375,-0.83366 0.61943,-1.37234 0.13952,-0.41309 0.17061,-0.46931 0.34398,-0.62208 0.34032,-0.29987 0.47202,-0.39315 0.58774,-0.4163 0.0625,-0.0125 0.14153,-0.0652 0.17557,-0.11719 0.0344,-0.0525 0.10148,-0.0945 0.15109,-0.0945 0.0491,0 0.11991,-0.0339 0.15745,-0.0754 0.0375,-0.0415 0.125,-0.0868 0.19437,-0.10063 0.0694,-0.0139 0.21219,-0.0978 0.31735,-0.18647 0.10517,-0.0887 0.24999,-0.18154 0.32182,-0.20637 0.0718,-0.0248 0.21476,-0.0967 0.3176,-0.15971 0.4407,-0.27002 1.06251,-0.43141 1.6622,-0.43141 0.35839,0 0.53556,-0.0724 0.67325,-0.275 0.13334,-0.19623 0.12953,-0.40087 -0.0106,-0.56737 -0.17016,-0.20222 -0.3044,-0.23763 -0.90083,-0.23763 -0.71417,0 -1.4323,0.0892 -2.2296,0.2771 -0.36379,0.0857 -0.76944,0.1773 -0.90144,0.20353 -0.34743,0.069 -0.96518,0.27144 -1.22027,0.39983 -0.5127,0.25806 -1.19517,0.91 -2.11706,2.02239 -0.65357,0.78861 -1.60422,1.73127 -2.32865,2.30908 -0.32229,0.25705 -0.66814,0.55875 -0.76856,0.67044 -0.10041,0.11169 -0.34881,0.48984 -0.55199,0.84035 -0.20318,0.3505 -0.38104,0.63728 -0.39525,0.63728 -0.0824,0 -0.18136,-0.21348 -0.31819,-0.68615 -0.13488,-0.46593 -0.51743,-1.60625 -0.91329,-2.72239 -0.068,-0.19169 -0.15829,-0.41669 -0.20066,-0.5 -0.0424,-0.0833 -0.134,-0.35846 -0.20362,-0.61146 -0.0696,-0.253 -0.19625,-0.676 -0.28139,-0.94 -0.0851,-0.264 -0.22054,-0.795 -0.30087,-1.18 -0.0803,-0.385 -0.19983,-0.916 -0.26556,-1.18 -0.14574,-0.58545 -0.20916,-1.32432 -0.1751,-2.04 0.031,-0.65014 0.0722,-0.89182 0.24236,-1.42 0.20364,-0.632099 0.25827,-0.950184 0.29884,-1.74 0.0203,-0.396 0.0375,-0.7245 0.0381,-0.73 6.3e-4,-0.0055 38.88234,-0.01 86.4038,-0.01 l 86.40266,0 1.08734,0.827457 c 2.60448,1.981993 4.63127,3.591903 6.86734,5.454853 2.88867,2.40666 6.24044,5.3332 6.5306,5.70208 l 0.0739,0.094 -14.21226,14.2403 -14.21226,14.24031 -74.70213,5.1e-4 -74.70212,5.2e-4 z M 417.96,134.22 c 2.23292,-2.233 4.07789,-4.05875 4.09993,-4.05722 0.0756,0.005 2.40531,2.88687 4.21799,5.21722 1.17321,1.50826 2.20208,2.85463 2.20208,2.88162 0,0.0101 -3.28047,0.0184 -7.28993,0.0184 h -7.28992 z M 190.2185,73.03 190.02,72.82 l 0.21,0.198496 c 0.19514,0.184447 0.22834,0.221504 0.1985,0.221504 -0.006,0 -0.10083,-0.0945 -0.21,-0.21 z"
         id="path8" />
      <path
         style="fill:#b5d332"
         d="m 388.5,341.00434 c -0.85981,-0.25704 -1.75867,-0.44514 -2.8,-0.58594 -0.264,-0.0357 -0.71149,-0.10837 -0.99442,-0.16148 -0.54391,-0.10211 -1.6361,-0.17536 -2.62977,-0.17637 -1.10081,-0.001 -1.98059,-0.11551 -2.39494,-0.3114 -0.25649,-0.12126 -0.55778,-0.40788 -0.67944,-0.64634 -0.12373,-0.24254 -0.14046,-0.491 -0.0812,-1.2059 0.0611,-0.73722 0.0176,-1.27296 -0.14091,-1.73214 -0.1555,-0.45063 -0.31227,-0.64315 -0.90079,-1.10618 -1.22439,-0.96332 -1.93168,-1.53863 -2.47856,-2.01608 -1.58387,-1.3828 -2.44115,-2.10463 -4.15395,-3.49767 -2.02679,-1.6484 -2.42013,-1.98538 -4.22605,-3.62061 -2.23244,-2.02142 -3.42737,-3.06165 -4.72629,-4.11443 -0.98621,-0.79932 -1.32046,-1.1816 -1.19772,-1.3698 0.10554,-0.16182 0.25319,-0.19699 0.80401,-0.1915 0.54278,0.005 2.28374,0.19907 4.43899,0.4938 1.67131,0.22854 2.58556,0.32679 5.3657,0.57662 1.36142,0.12233 3.54631,0.32184 4.85531,0.44334 1.309,0.12151 3.109,0.28353 4,0.36004 0.891,0.0765 2.421,0.21058 3.4,0.29791 3.13622,0.27977 3.99177,0.31773 7.82,0.34704 3.72109,0.0285 6.49841,-0.0325 9.52,-0.20925 2.10361,-0.12301 2.89419,-0.20548 5.94,-0.61959 3.77624,-0.51341 7.01412,-1.80282 9.5,-3.78314 0.49896,-0.39749 1.44493,-1.32714 1.80644,-1.77527 0.53419,-0.66218 2.65356,-3.73241 2.65356,-3.84408 0,-0.0219 0.0623,-0.10404 0.13847,-0.18246 0.0762,-0.0784 0.19623,-0.25753 0.26683,-0.39802 0.0706,-0.14049 0.14128,-0.25544 0.15707,-0.25544 0.0725,0 0.64115,-1.24255 0.99738,-2.17935 0.35913,-0.94439 0.75863,-2.48057 0.94161,-3.62065 0.12834,-0.79967 0.12392,-3.78727 -0.008,-5.11 l -0.0249,-0.25 h 20.66553 c 11.36603,0 20.66552,0.006 20.66552,0.0143 0,0.008 -0.11567,0.56138 -0.25703,1.23 -2.7786,13.14161 -6.71237,25.60543 -11.95099,37.86562 l -0.60246,1.40995 -31.68476,0.01 L 388.82,341.1 Z m -308.235839,0.0424 C 80.145495,340.85473 78.61653,337.20326 77.799235,335.16 73.381892,324.11655 69.84182,312.34731 67.58741,301.21 l -0.131573,-0.65 h 72.215993 72.21599 l -20.23052,20.26 -20.23053,20.26 h -45.57102 c -25.06407,0 -45.580281,-0.015 -45.591589,-0.0333 z M 225.72002,326.65637 c 17.58778,-17.59223 22.80526,-22.76794 23.12329,-22.93814 0.14726,-0.0788 3.17436,1.75136 4.63669,2.80331 0.385,0.27696 1.0948,0.78837 1.57733,1.13647 1.53261,1.10563 2.08327,1.44412 2.68267,1.64906 0.154,0.0526 0.901,0.25841 1.66,0.45724 2.76527,0.72439 2.70725,0.70032 4.14266,1.71871 1.70354,1.20862 2.50231,1.65057 4.87734,2.69856 1.29063,0.5695 3.33862,1.56743 5.92,2.88465 2.51703,1.28438 2.81592,1.44866 3.66,2.01158 0.58512,0.39022 2.13077,1.48609 2.67371,1.89566 0.57981,0.43739 1.03343,0.86944 2.48466,2.36653 1.66903,1.72178 3.68731,3.72873 4.34163,4.31727 0.28343,0.25493 0.73891,0.59469 1.28,0.95479 0.462,0.30746 0.948,0.64095 1.08,0.74107 0.40361,0.30616 1.0222,0.96594 1.37731,1.46901 0.64073,0.9077 0.96236,1.24813 1.66269,1.75985 0.176,0.1286 0.67797,0.58289 1.11549,1.00955 0.43752,0.42665 1.1007,1.03701 1.47374,1.35636 0.75647,0.64759 1.48636,1.32113 2.59221,2.3921 1.1581,1.12156 2.23218,2.13805 3.03923,2.87627 0.40663,0.37195 0.78392,0.71845 0.83842,0.77 l 0.0991,0.0937 h -45.37907 -45.37907 z"
         id="path7" />
      <path
         style="fill:#58bc9a"
         d="m 67.44,300.5382 c 0,-0.012 -0.126671,-0.67349 -0.28149,-1.47 -1.911064,-9.83198 -3.060881,-19.44403 -3.537021,-29.5682 -0.13267,-2.82099 -0.14637,-3.33791 -0.169351,-6.39 l -0.02372,-3.15 59.23579,4.6e-4 59.23579,4.5e-4 0.46245,0.52955 c 0.58926,0.67474 0.9126,1.07343 1.25671,1.54954 0.34921,0.48317 1.78112,2.36695 2.35639,3.1 0.59295,0.75559 0.79371,1.05906 0.99478,1.50371 0.0936,0.20696 0.23569,0.49329 0.31579,0.63629 0.1916,0.34205 0.24306,0.52778 0.43695,1.5772 0.2068,1.11934 0.2913,1.68784 0.39578,2.6628 0.20278,1.89226 0.31074,2.54148 0.57552,3.46078 0.24431,0.84821 0.68473,2.01548 0.99378,2.63385 0.48294,0.9663 2.39411,3.57146 3.11856,4.25097 0.66814,0.62669 2.68151,1.95743 4.39584,2.90543 0.68668,0.37972 0.71108,0.39032 1.86382,0.80955 0.98199,0.35713 1.4953,0.50717 2.25363,0.65872 1.63915,0.32759 3.38424,0.39753 5.06,0.20282 1.82614,-0.2122 3.60614,-0.302 5.34,-0.26941 1.57935,0.0297 2.14894,0.10104 3.90512,0.48922 0.80613,0.17818 2.9483,0.79141 3.81711,1.09271 0.59667,0.20692 0.93828,0.36414 1.80975,0.8329 0.39164,0.21066 0.85966,0.44647 1.04004,0.52402 0.18039,0.0775 0.34017,0.1596 0.35506,0.18235 0.12943,0.19769 -0.95773,1.35671 -7.12229,7.59313 l -3.62479,3.66705 -72.23,0.003 c -39.7265,0.002 -72.23,-0.007 -72.23,-0.0188 z M 423.66307,300.47 c -0.0102,-0.0495 -0.048,-0.342 -0.0842,-0.65 -0.12928,-1.10146 -0.44892,-2.88986 -0.7023,-3.92935 -0.37615,-1.54319 -1.12922,-3.59701 -2.47473,-6.74927 -0.35652,-0.83524 -0.69217,-1.64957 -0.7459,-1.80961 -0.1457,-0.43404 -0.0981,-0.53762 0.31863,-0.69331 0.12903,-0.0482 0.27046,-0.12351 0.31429,-0.16734 0.11001,-0.11001 0.0596,-0.15233 -0.43984,-0.36911 -0.49889,-0.21655 -0.73151,-0.37288 -0.88258,-0.59315 -0.86716,-1.26428 -1.73387,-5.18343 -2.54592,-11.51228 -0.24163,-1.88322 -0.7534,-5.20537 -1.02235,-6.63658 -0.0434,-0.231 -0.13279,-0.78 -0.19863,-1.22 -0.0658,-0.44 -0.23591,-1.466 -0.37795,-2.28 -0.14205,-0.814 -0.33052,-1.894 -0.41884,-2.4 -0.0883,-0.506 -0.18598,-1.0505 -0.21703,-1.21 l -0.0564,-0.29 h 27.46181 27.4618 l -0.0276,2.67 c -0.0501,4.85077 -0.1591,7.50807 -0.50674,12.35 -0.57618,8.02503 -1.62228,15.85319 -3.21788,24.08 -0.14507,0.748 -0.2733,1.3915 -0.28494,1.43 -0.0201,0.0666 -1.03955,0.07 -20.67771,0.07 h -20.65655 z m -37.49836,-13.55033 c -0.11841,-0.0426 -0.54429,-0.25886 -0.9464,-0.4806 -0.68779,-0.37928 -1.06321,-0.53855 -1.93831,-0.82229 -0.37855,-0.12274 -0.92349,-0.22805 -1.74,-0.33626 -0.77641,-0.1029 -1.65551,-0.29647 -1.9,-0.41836 -0.55857,-0.27847 -0.67067,-0.3649 -1.32061,-1.01817 -0.36334,-0.36519 -0.88239,-0.92022 -1.15344,-1.2334 -0.73627,-0.85069 -1.13726,-1.15305 -2.05397,-1.54878 -1.19028,-0.51383 -1.38061,-0.54419 -3.63198,-0.57934 l -1.78,-0.0278 -0.3,-0.11185 c -0.68341,-0.25479 -2.94545,-1.46535 -3.98391,-2.13203 -0.63417,-0.40713 -1.30839,-0.78278 -2.03609,-1.13445 -0.87594,-0.4233 -0.96398,-0.44868 -1.4895,-0.42954 -0.39872,0.0145 -0.45264,0.0265 -0.7305,0.16246 -0.165,0.0807 -0.444,0.22995 -0.62,0.3316 -0.6271,0.36218 -1.02007,0.47979 -1.58,0.47287 -0.29096,-0.004 -0.46435,-0.0305 -0.74,-0.11482 -0.65115,-0.1992 -0.75374,-0.21969 -1.4,-0.2797 -0.82356,-0.0765 -1.13078,-0.12701 -1.5,-0.24672 -0.57788,-0.18735 -1.00516,-0.47253 -1.70758,-1.13969 -0.23758,-0.22565 -0.60932,-0.52062 -0.89101,-0.707 -0.42304,-0.27991 -0.55435,-0.34334 -1.05238,-0.50835 -0.31297,-0.1037 -0.64103,-0.22437 -0.72903,-0.26817 -0.21595,-0.10747 -0.7165,-0.46172 -1.12998,-0.79971 -0.75864,-0.62013 -1.50663,-1.01425 -2.62685,-1.38409 -0.54657,-0.18045 -0.79526,-0.2884 -1.22452,-0.53155 -1.31831,-0.74675 -1.72351,-0.89181 -2.65949,-0.95209 -0.80389,-0.0518 -1.08757,-0.16673 -1.63303,-0.66184 -0.28919,-0.2625 -1.88677,-1.91842 -2.62416,-2.72 -0.18215,-0.198 -0.43261,-0.43602 -0.55657,-0.52894 -0.38816,-0.29093 -2.97262,-1.59823 -3.6454,-1.84396 -0.121,-0.0442 -0.32023,-0.11698 -0.44274,-0.16175 -0.1225,-0.0448 -0.51096,-0.14533 -0.86324,-0.22346 -0.78714,-0.17458 -1.07219,-0.27012 -1.72426,-0.5779 -1.1885,-0.56099 -2.20936,-0.84617 -4.9682,-1.38787 -1.92237,-0.37746 -2.59594,-0.56626 -3.66156,-1.02633 -0.56612,-0.24441 -1.4097,-0.50939 -1.8749,-0.58892 -0.24905,-0.0426 -0.85608,-0.10546 -1.34896,-0.13975 -0.49288,-0.0343 -1.29214,-0.10627 -1.77614,-0.15996 -1.43246,-0.15889 -1.63931,-0.1737 -4.52,-0.32355 -0.66,-0.0343 -1.488,-0.0787 -1.84,-0.0986 -0.85409,-0.0482 -4.91466,-0.0473 -5.52,0.001 -2.31502,0.18573 -2.83968,0.24061 -4.22,0.44143 -1.25792,0.18301 -2.87636,0.14404 -4.42578,-0.10656 -1.17068,-0.18934 -1.70367,-0.1766 -2.97422,0.0711 -0.59082,0.11518 -0.65012,0.11954 -1.26,0.0927 -0.48592,-0.0214 -1.55086,-0.0574 -1.73917,-0.0588 -0.0105,-8e-5 0.14209,-0.16214 0.33917,-0.36014 l 0.35833,-0.36 h 43.88848 c 24.13866,0 43.89771,0.0149 43.909,0.0332 0.0113,0.0183 0.0755,0.41878 0.14278,0.89 0.17389,1.21878 0.32095,1.92151 0.63585,3.03845 0.27686,0.98199 0.35362,1.2877 0.72266,2.87833 0.10974,0.473 0.26272,1.09842 0.33995,1.38983 0.17996,0.67898 0.23828,1.0226 0.36494,2.15017 0.11384,1.0135 0.22877,1.7204 0.41295,2.54 0.0667,0.297 0.18637,0.873 0.26585,1.28 0.20679,1.05891 0.67237,3.07119 0.88383,3.82 0.23233,0.82265 0.94355,2.95688 1.22635,3.68 0.12045,0.308 0.36288,0.893 0.53873,1.3 1.06844,2.47287 1.36973,3.76483 0.93252,3.99881 -0.11034,0.0591 -0.23232,0.0491 -0.47751,-0.0391 z"
         id="path6" />
      <path
         style="fill:#e97148"
         d="m 260.56,462.7767 c -0.143,-0.008 -0.8,-0.0332 -1.46,-0.0568 -14.91658,-0.53255 -29.40333,-2.61235 -43.47546,-6.24159 -12.68114,-3.27049 -24.30096,-7.47212 -36.16454,-13.07679 -1.49378,-0.7057 -5.38625,-2.64191 -6.88,-3.42228 -8.49688,-4.43895 -16.33815,-9.24878 -24.02,-14.73385 -1.11232,-0.79422 -3.067,-2.2217 -3.79597,-2.77212 L 144.50807,422.28 h 121.68596 c 66.92729,0 121.68597,0.008 121.68597,0.0167 0,0.0245 -1.63924,1.23709 -3.04,2.24878 -22.2384,16.06138 -47.63511,27.50579 -74.14,33.40938 -10.70095,2.38349 -20.88857,3.81813 -31.98,4.50349 -2.5025,0.15464 -3.94229,0.21891 -5.9,0.26337 -1.72253,0.0391 -11.71966,0.084 -12.26,0.055 z"
         id="path5" />
      <path
         style="fill:#995da4"
         d="m 80.32,178.82391 c 0,-0.0295 1.182603,-2.66902 1.652484,-3.68834 5.85377,-12.69866 13.029781,-24.79872 21.282186,-35.88564 l 0.72206,-0.97008 10.59309,0.0101 10.59309,0.0101 0.13932,0.34 c 0.0766,0.187 0.1657,0.448 0.19795,0.58 0.0831,0.3403 0.0752,1.06486 -0.0179,1.64 -0.19349,1.19459 -0.27903,2.33742 -0.31886,4.26 -0.032,1.54509 -0.0498,1.66485 -0.27342,1.84075 -0.17571,0.13821 -0.3471,0.10414 -0.83088,-0.16521 -1.57263,-0.87555 -3.07009,-1.48516 -3.97908,-1.61986 -0.60477,-0.0896 -1.83723,-0.0979 -2.04,-0.0138 -0.077,0.032 -0.365,0.17827 -0.64,0.32514 -0.59074,0.31548 -1.13064,0.55819 -1.6,0.71925 -0.43629,0.14972 -0.62083,0.19131 -1.04754,0.23609 -0.19115,0.0201 -0.4662,0.0811 -0.61122,0.13571 -0.39412,0.14835 -0.92671,0.4213 -1.02389,0.52474 l -0.0857,0.0913 0.15419,0.0785 c 0.33006,0.16792 1.16393,0.3738 1.81078,0.44707 0.40619,0.046 0.72079,0.0198 1.66342,-0.1388 1.1225,-0.18883 1.59069,-0.16871 2.36375,0.10159 1.09382,0.38244 1.90695,0.92449 2.86164,1.90763 0.58096,0.59827 0.85448,0.96287 1.10274,1.46997 0.1077,0.22 0.27163,0.499 0.36427,0.62 0.38309,0.50035 0.81599,1.54575 0.8843,2.13547 0.0505,0.43564 0.0733,0.78713 0.14429,2.22453 0.0771,1.55999 0.11707,2.03286 0.23846,2.82 0.13708,0.88884 0.30055,2.16413 0.30055,2.34473 0,0.0828 -0.0196,0.16267 -0.0436,0.17748 -0.024,0.0148 -0.29847,0.0601 -0.61,0.10073 -0.31153,0.0406 -0.74597,0.10124 -0.96541,0.1348 -0.30694,0.0469 -0.47767,0.0522 -0.74,0.0228 -0.18756,-0.021 -1.42101,-0.0571 -2.74101,-0.0802 -2.58335,-0.0452 -3.5006,-0.0875 -3.977,-0.1836 -0.39241,-0.0791 -1.00442,-0.3791 -1.44401,-0.70774 -0.18756,-0.14021 -0.47113,-0.33092 -0.63015,-0.4238 -0.97999,-0.57234 -1.70533,-1.50968 -1.85002,-2.39073 -0.0638,-0.38822 -0.11242,-0.52541 -0.21078,-0.59431 -0.0924,-0.0648 -0.4138,-0.0806 -0.50193,-0.0247 -0.0296,0.0188 -0.12481,0.26498 -0.21149,0.54711 -0.20748,0.6753 -0.24986,1.20619 -0.22332,2.79751 0.0156,0.93638 0.0338,1.24394 0.0829,1.4 0.0346,0.11 0.10867,0.362 0.16458,0.56 0.24273,0.85968 0.51307,1.5279 0.8251,2.03945 0.19565,0.32077 0.68974,1.38764 0.81344,1.75644 0.21142,0.63034 0.14637,2.87791 -0.11646,4.02411 -0.053,0.231 -0.15103,0.65841 -0.21792,0.9498 -0.14769,0.6434 -0.29623,0.95322 -0.59907,1.24954 -0.64028,0.62647 -1.87863,0.84222 -3.78748,0.65986 -1.21794,-0.11636 -1.73673,-0.2155 -1.9837,-0.37909 -0.14846,-0.0983 -0.20964,-0.11387 -0.43481,-0.11046 -0.48335,0.007 -0.82981,-0.27347 -1.49762,-1.21383 -0.55643,-0.78352 -0.89275,-1.12608 -1.38452,-1.41022 -0.46322,-0.26764 -1.19657,-0.42518 -1.9804,-0.42544 -0.47269,-1.6e-4 -0.49141,0.003 -0.760448,0.13783 -0.151705,0.0759 -0.348245,0.19998 -0.436756,0.27574 -0.08851,0.0758 -0.228082,0.15629 -0.310157,0.17895 -0.08208,0.0227 -0.243453,0.0984 -0.358618,0.16838 -0.335094,0.20353 -1.069391,0.76856 -1.069391,0.82289 0,0.0767 0.148131,0.094 1.16,0.13518 1.5012,0.0611 2.20773,0.22255 2.50421,0.57216 0.17194,0.20277 0.39423,0.72167 0.55892,1.30479 0.10228,0.36215 0.19317,0.59679 0.28015,0.72323 0.1692,0.24599 0.3484,0.60746 0.4366,0.88069 0.31681,0.98152 0.82446,1.96149 1.29309,2.49622 0.11387,0.12993 0.20703,0.25979 0.20703,0.2886 0,0.0288 0.0337,0.0704 0.0749,0.0925 0.0412,0.0221 0.2617,0.21323 0.49,0.42484 0.22831,0.21161 0.4826,0.4306 0.5651,0.48663 0.0825,0.056 0.15,0.1175 0.15,0.13658 0,0.0195 -5.496557,0.0347 -12.56,0.0347 -6.908,0 -12.56,-0.007 -12.56,-0.0161 z m 157.25164,-0.0855 c -0.7139,-0.27611 -2.02181,-0.36843 -3.47164,-0.24505 -0.76428,0.065 -1.01804,0.0496 -1.20578,-0.0734 -0.17223,-0.11285 -0.24434,-0.21792 -0.32931,-0.47989 -0.10778,-0.33227 -0.10388,-0.3108 -0.30279,-1.66678 -0.0979,-0.66727 -0.2509,-1.70368 -0.34004,-2.30314 -0.19309,-1.29848 -0.19674,-1.40481 -0.0578,-1.68368 0.12912,-0.2591 0.34364,-0.42809 0.8757,-0.68982 0.59605,-0.2932 0.7997,-0.33658 1.58,-0.33658 0.78961,0 1.03667,0.0609 1.54,0.37959 0.55576,0.35189 0.56447,0.35286 3.58,0.39881 2.95827,0.0451 3.22164,0.0695 3.9888,0.36931 0.17116,0.0669 0.54073,0.19848 0.82127,0.29241 0.28185,0.0944 0.63602,0.24688 0.79156,0.34086 0.57153,0.34533 1.27846,0.51384 2.29837,0.54788 0.73563,0.0245 1.0056,-0.0155 1.26625,-0.18788 0.21159,-0.13993 0.47258,-0.23823 1.06721,-0.40194 0.67292,-0.18527 0.94117,-0.31417 0.78142,-0.37547 -0.16219,-0.0622 -0.83129,-0.14326 -1.18424,-0.14341 -0.56114,-2.3e-4 -1.66021,-0.24665 -1.98624,-0.44533 -0.22814,-0.13903 -1.38959,-1.60872 -1.56323,-1.97811 -0.0509,-0.1082 -0.18858,-0.32426 -0.30603,-0.48015 -0.11745,-0.15589 -0.25969,-0.38421 -0.31608,-0.50738 -0.0965,-0.21076 -0.33021,-0.46919 -0.42433,-0.46919 -0.0234,0 -0.20724,-0.1665 -0.40861,-0.37 -0.25755,-0.26028 -0.46086,-0.42338 -0.68562,-0.55 -0.29349,-0.16535 -0.34559,-0.18105 -0.64,-0.19294 -0.17628,-0.007 -0.6445,0.0255 -1.0405,0.0725 -1.36419,0.16188 -1.60397,0.17703 -2.02288,0.12788 -0.48674,-0.0571 -0.77621,-0.16373 -1.0149,-0.37383 -0.58016,-0.51068 -0.54512,-1.33885 0.0862,-2.03765 0.18898,-0.20918 0.30589,-0.26645 0.76888,-0.37662 0.21048,-0.0501 0.46207,-0.12082 0.55908,-0.15719 0.15152,-0.0568 0.27872,-0.0622 0.90272,-0.0385 0.65806,0.0251 0.73658,0.021 0.83524,-0.0437 0.1457,-0.0955 0.19904,-0.20028 0.14927,-0.29328 -0.0896,-0.16735 -1.2752,-0.66814 -2.06361,-0.87163 -0.3957,-0.10213 -0.50646,-0.11364 -1.1,-0.11434 -0.71585,-8.5e-4 -1.96288,0.0808 -2.22,0.14541 -0.088,0.0221 -0.322,0.10033 -0.52,0.17385 -1.16977,0.43432 -2.64769,0.66762 -4.28,0.67564 -0.98828,0.005 -1.17474,-0.0278 -1.52107,-0.26648 -0.35743,-0.24632 -0.49396,-0.62197 -0.57758,-1.5892 -0.0671,-0.77636 -0.19304,-1.63763 -0.34504,-2.36 -0.19333,-0.91881 -0.27471,-1.34776 -0.41575,-2.19118 -0.14021,-0.83851 -0.21327,-1.17374 -0.30221,-1.3866 -0.12599,-0.30154 -0.0106,-0.51606 0.30527,-0.56731 0.16809,-0.0273 0.37041,0.0866 1.26333,0.71101 0.60733,0.42471 0.99773,0.62731 1.41305,0.73334 0.143,0.0365 0.35624,0.11146 0.47387,0.16656 0.19225,0.0901 0.29338,0.10431 1,0.14099 0.43237,0.0224 1.12813,0.0299 1.54613,0.0166 1.4727,-0.047 2.14243,-0.21706 3.07674,-0.78141 0.50558,-0.30539 0.58326,-0.39036 0.58326,-0.63802 0,-0.24866 -0.0148,-0.25134 -0.47114,-0.0848 -0.43771,0.15975 -1.01285,0.21398 -1.70712,0.16099 -1.72162,-0.1314 -2.51029,-0.56045 -3.20174,-1.74176 -0.45266,-0.77335 -1.08177,-1.34139 -2.32537,-2.09964 -0.64239,-0.39168 -0.88188,-0.46668 -2.02154,-0.63308 -0.36093,-0.0527 -0.54073,-0.14433 -0.63016,-0.32115 -0.0884,-0.17488 -0.16293,-0.50943 -0.16293,-0.73175 0,-0.21698 0.16599,-0.37427 0.5632,-0.53365 0.29218,-0.11725 0.30738,-0.11898 0.9768,-0.11166 0.79539,0.009 1.42839,0.0773 2.48637,0.26959 0.92487,0.16806 1.43043,0.22305 2.04787,0.22273 1.05919,-5.3e-4 1.87837,-0.23605 2.55455,-0.73444 0.31425,-0.23162 0.42112,-0.39552 0.55033,-0.84405 0.21212,-0.73629 0.57918,-1.2629 1.56221,-2.24127 0.64838,-0.64531 0.97867,-1.06238 0.97867,-1.23582 0,-0.11921 -0.2374,-0.22387 -0.50818,-0.22403 -0.59083,-3.6e-4 -1.2863,0.40771 -2.31182,1.35646 -1.0088,0.93327 -1.88744,1.30268 -2.74,1.15196 -0.61759,-0.10918 -0.73289,-0.17362 -1.28797,-0.71981 -1.22291,-1.20332 -2.85795,-2.24166 -4.99043,-3.16921 -1.43329,-0.62343 -1.45296,-0.65139 -2.43371,-3.45955 -0.41328,-1.18331 -0.75697,-2.30426 -0.71835,-2.34287 0.009,-0.009 33.61043,-0.0127 74.66888,-0.007 l 74.65173,0.01 -20.24912,20.27 -20.24912,20.27 -47.84595,-0.003 -47.84596,-0.003 z M 393.66,158.56 l 20.27997,-20.28 7.28002,0.002 7.28001,0.002 0.13898,0.18844 c 0.0764,0.10364 0.46428,0.62944 0.86186,1.16844 8.25523,11.19146 15.36489,23.23338 21.08943,35.72 0.5547,1.20993 1.52973,3.40504 1.52973,3.44391 0,0.0214 -15.99206,0.0361 -39.36999,0.0361 h -39.36998 z m -183.2098,3.0353 c -0.0798,-0.023 -0.31263,-0.21042 -0.60438,-0.48639 -0.26102,-0.2469 -0.71342,-0.61983 -1.00533,-0.82873 -0.29191,-0.2089 -0.72194,-0.56201 -0.95562,-0.78468 l -0.42487,-0.40487 1.2e-4,-0.43531 c 1.5e-4,-0.59187 0.0546,-0.70354 0.61055,-1.25181 0.32543,-0.32095 0.46617,-0.49358 0.58121,-0.71285 0.0835,-0.15913 0.21665,-0.37513 0.29592,-0.48 0.42238,-0.55872 1.76057,-1.86614 1.96173,-1.91663 0.28169,-0.0707 0.30653,0.23362 0.22907,2.80597 -0.12774,4.24239 -0.13098,4.29249 -0.28878,4.47 -0.0675,0.076 -0.19604,0.0841 -0.39962,0.0253 z M 134.8,149.36169 c -0.33797,-0.0614 -0.50567,-0.12093 -0.88282,-0.31337 -0.87527,-0.44662 -1.35388,-0.86057 -1.82776,-1.5808 -0.32106,-0.48797 -0.65752,-1.12229 -0.77238,-1.45613 -0.12085,-0.35126 -0.10049,-0.59772 0.16127,-1.95139 0.17318,-0.89567 0.21582,-1.43384 0.18998,-2.39831 -0.0229,-0.85413 -0.0809,-1.32634 -0.22717,-1.85021 -0.0903,-0.32329 -0.35159,-0.99639 -0.5021,-1.29341 -0.0545,-0.10748 -0.099,-0.20501 -0.099,-0.21674 0,-0.0117 2.04026,-0.0213 4.53392,-0.0213 h 4.53392 l 0.0261,0.42622 c 0.0411,0.67234 0.0304,2.95517 -0.0162,3.43683 -0.0602,0.62285 -0.19448,1.14358 -0.50041,1.94075 -0.24285,0.63282 -0.33142,0.8941 -0.64277,1.8962 -0.24497,0.78843 -0.55861,1.17349 -1.33469,1.63858 -0.80219,0.48074 -1.13281,0.77982 -1.45891,1.31976 -0.2336,0.38679 -0.31525,0.43961 -0.69368,0.44868 -0.16902,0.004 -0.3883,-0.007 -0.4873,-0.0253 z m 68.32,-1.18172 c -0.65919,-0.10763 -1.04266,-0.29686 -1.40602,-0.69383 -0.4844,-0.5292 -0.61162,-1.06713 -0.58325,-2.46614 0.0208,-1.0245 0.0498,-1.191 0.3106,-1.78 0.48885,-1.10418 0.73821,-1.63432 0.82005,-1.74337 0.0509,-0.0679 0.31444,-0.27461 0.5856,-0.45947 0.58674,-0.39998 1.20708,-0.9961 1.51289,-1.45383 0.2235,-0.33452 0.47906,-0.84922 0.56273,-1.13333 l 0.0501,-0.17 h 3.00886 3.00886 l 0.0261,0.49 c 0.11866,2.22804 0.1367,4.1642 0.0422,4.5316 -0.16389,0.63723 -0.56079,0.94582 -2.29868,1.78722 -1.3105,0.63447 -1.46892,0.71745 -1.82468,0.95575 -0.44767,0.29986 -0.83412,0.62523 -1.51959,1.27941 -0.34965,0.33369 -0.73309,0.6718 -0.85208,0.75136 -0.21347,0.14274 -0.22224,0.14476 -0.66,0.1524 -0.24401,0.004 -0.59665,-0.0172 -0.78365,-0.0478 z m -47.15116,-3.26218 c -0.27366,-0.0486 -0.38867,-0.12739 -0.51565,-0.35346 -0.0569,-0.10138 -0.16471,-0.27639 -0.23949,-0.3889 -0.17848,-0.26855 -0.19641,-0.43715 -0.25041,-2.35543 -0.0235,-0.836 -0.0507,-1.79961 -0.0603,-2.14136 -0.01,-0.34175 -0.007,-0.79625 0.006,-1.01 l 0.0232,-0.38864 h 2.67413 c 2.28384,0 2.67412,0.008 2.67412,0.0568 0,0.0312 -0.0439,0.31475 -0.0976,0.63 -0.11203,0.65779 -0.21128,0.97341 -0.56819,1.80672 -0.14056,0.32819 -0.3612,0.87791 -0.4903,1.22159 -0.26943,0.71724 -0.70088,1.69794 -0.81164,1.84487 -0.23263,0.30861 -1.10903,0.9644 -1.38698,1.03784 -0.22825,0.0603 -0.72476,0.0811 -0.95644,0.04 z m 20.71575,-5.56034 c -0.11848,-0.0211 -0.30337,-0.0862 -0.41088,-0.14473 -0.20341,-0.11071 -0.95371,-0.80912 -0.95371,-0.88775 0,-0.0328 0.67729,-0.0445 2.51,-0.0433 l 2.51,0.002 -0.18,0.1586 c -0.27081,0.23862 -0.72081,0.45206 -1.3,0.61662 -0.286,0.0813 -0.58074,0.18515 -0.65497,0.23089 -0.11769,0.0725 -0.20991,0.0846 -0.72,0.0947 -0.32177,0.006 -0.68197,-0.006 -0.80044,-0.0268 z"
         id="path4" />
      <path
         style="fill:#5b68b0"
         d="m 67.48,219.35737 c 0,-0.063 0.488874,-2.37551 0.7605,-3.59737 1.127688,-5.07269 2.306814,-9.56438 3.879936,-14.78 2.092583,-6.93787 4.729221,-14.12499 7.748002,-21.12 l 0.431562,-1 12.58,-0.009 12.58,-0.009 0.2302,0.30877 c 0.12662,0.16982 0.31345,0.47077 0.4152,0.66877 0.10174,0.198 0.22592,0.41502 0.27594,0.48227 0.12424,0.16704 0.31946,0.73478 0.3785,1.10072 0.0366,0.22669 0.0381,0.41527 0.006,0.7593 -0.0643,0.69268 -0.0618,0.68737 -0.76673,1.59771 -0.3243,0.41879 -0.45572,0.71954 -0.45572,1.04289 0,0.24282 0.0197,0.31145 0.18526,0.64493 0.1019,0.20526 0.27842,0.49897 0.39227,0.65269 0.56963,0.76912 0.84606,1.77692 0.6596,2.4048 -0.0756,0.25458 -0.34359,0.63073 -0.48885,0.68614 -0.0615,0.0235 -0.23781,0.0506 -0.39181,0.0603 -0.20326,0.0129 -0.41188,0.0673 -0.76121,0.19863 -1.02285,0.38458 -2.20803,0.59128 -3.37303,0.58826 -0.46026,-0.001 -0.65138,-0.0171 -1.21043,-0.10053 -0.17403,-0.026 -0.19425,-0.0189 -0.35053,0.12226 -0.281628,0.25444 -0.266747,0.32637 0.21725,1.05021 0.14187,0.21218 0.25795,0.40758 0.25795,0.43424 0,0.0267 0.1395,0.14738 0.31,0.26827 0.1705,0.1209 0.454,0.3488 0.63,0.50645 0.36057,0.32298 0.66352,0.54054 0.96499,0.69301 0.27729,0.14023 0.94115,0.33358 1.32275,0.38524 0.57566,0.0779 1.90605,0.16208 2.56332,0.16212 0.56137,3e-5 0.73221,0.0163 1.24,0.11816 0.67882,0.13614 1.36838,0.24619 2.39034,0.38146 1.52104,0.20134 2.00505,0.30803 2.65634,0.5855 0.51444,0.21917 1.20479,0.57407 1.31328,0.67514 0.17092,0.15923 0.4085,0.50765 0.53223,0.78053 0.0688,0.15179 0.19493,0.37876 0.28023,0.50437 0.15045,0.22155 0.17974,0.30737 0.27809,0.81488 0.0256,0.132 0.07,0.357 0.0988,0.5 0.0288,0.143 0.0733,0.521 0.0989,0.84 0.0579,0.71986 0.11648,1.06076 0.33994,1.97711 0.28072,1.15118 0.28083,1.15222 0.28083,2.56289 0,1.85944 -0.0433,2.04102 -0.59191,2.47993 -0.43323,0.34662 -0.6045,0.41156 -0.90286,0.3423 -0.12388,-0.0288 -0.28945,-0.0606 -0.36794,-0.0708 -0.1925,-0.0249 -0.47729,0.0545 -0.47729,0.13306 0,0.0338 0.13019,0.20494 0.28932,0.38032 0.62391,0.68761 1.10083,1.50946 1.26595,2.18152 0.0441,0.17951 0.15369,0.47257 0.24353,0.65124 0.27756,0.55205 0.45922,1.51136 0.5799,3.06239 0.12056,1.54953 0.20397,1.93954 0.82127,3.84 0.15007,0.462 0.29501,0.95356 0.32211,1.09236 0.0516,0.26445 0.0296,1.50895 -0.0323,1.82764 l -0.0311,0.16 -24.809318,0.01 C 74.726344,219.39713 67.48,219.38759 67.48,219.35737 Z m 52.64,0.0296 c 0,-0.007 0.0457,-0.12572 0.10161,-0.26326 0.0559,-0.13754 0.16441,-0.50169 0.24115,-0.80922 0.0767,-0.30752 0.19302,-0.67234 0.25839,-0.81069 0.10236,-0.21665 0.11887,-0.2982 0.11899,-0.58768 7e-5,-0.18487 0.0189,-0.54313 0.0419,-0.79613 0.0658,-0.72476 0.34506,-2.48433 0.43798,-2.76016 0.18105,-0.53743 0.72658,-1.4579 1.01236,-1.70816 0.0806,-0.0706 0.22328,-0.14912 0.31706,-0.17455 0.22227,-0.0603 0.6252,-0.0219 0.82148,0.0783 0.30741,0.15683 1.48332,1.32379 1.73992,1.72668 0.21329,0.33488 0.33833,0.66582 0.3852,1.01944 0.0232,0.17517 0.0608,0.8585 0.0836,1.5185 0.049,1.42226 0.10556,2.25556 0.16342,2.40873 0.0504,0.13331 0.23151,0.33127 0.30314,0.33127 0.12467,0 0.55725,-0.71636 0.65277,-1.08101 0.0919,-0.35064 0.34887,-0.81783 0.57804,-1.05068 0.24729,-0.25128 0.72675,-0.58887 1.03758,-0.73058 0.28932,-0.1319 0.81112,-0.19004 1.20899,-0.1347 0.17335,0.0241 0.3301,0.0531 0.34834,0.0643 0.0182,0.0113 0.59451,0.0358 1.28062,0.0546 1.10628,0.0302 1.3267,0.0476 1.94747,0.15377 0.385,0.0658 0.826,0.16418 0.98,0.21854 0.50094,0.17681 1.42733,0.62308 1.5803,0.76128 0.20434,0.18461 0.62124,0.42263 1.14211,0.65206 0.32365,0.14256 0.48835,0.24241 0.63705,0.38622 0.1173,0.11345 0.3189,0.2486 0.48569,0.3256 0.15684,0.0724 0.35409,0.19666 0.43834,0.27613 0.0842,0.0795 0.17608,0.14448 0.20408,0.14448 0.079,0 0.1002,0.15735 0.0648,0.48229 L 138.7,219.38 l -9.29,0.0101 c -5.1095,0.006 -9.29,0.004 -9.29,-0.003 z m 126.26383,-0.077 c -0.0319,-0.0495 -0.25811,-0.441 -0.50266,-0.87 -0.6055,-1.06218 -1.06782,-1.98667 -1.34022,-2.68 -0.28849,-0.73428 -0.40592,-0.94358 -0.693,-1.23515 -0.23668,-0.24038 -0.63103,-0.77276 -0.89764,-1.21182 -0.32072,-0.52817 -0.50383,-1.18431 -0.53944,-1.93303 -0.0546,-1.14853 0.1858,-1.33237 1.90913,-1.45986 0.297,-0.022 0.59889,-0.04 0.67087,-0.04 0.11638,-9e-5 0.14849,-0.0274 0.29,-0.2463 0.27582,-0.42675 0.22069,-0.49698 -0.48087,-0.61257 -0.64864,-0.10687 -1.02441,-0.23915 -1.20902,-0.42561 -0.0852,-0.086 -0.2665,-0.21276 -0.40293,-0.2816 -0.28885,-0.14575 -0.77342,-0.61175 -0.88805,-0.85402 -0.0612,-0.1294 -0.0761,-0.25563 -0.0779,-0.66 -0.003,-0.71658 -0.0822,-0.60341 1.3183,-1.88545 0.99473,-0.91058 1.20568,-1.06773 1.9789,-1.47422 0.33074,-0.17387 0.49616,-0.29454 0.79349,-0.57878 0.64544,-0.61705 1.38522,-1.6099 1.7282,-2.31939 0.24503,-0.50687 0.31776,-0.87735 0.35494,-1.80787 0.0288,-0.72159 0.0412,-0.82023 0.11811,-0.94473 0.0472,-0.0764 0.0859,-0.17288 0.0859,-0.21428 5e-5,-0.11798 0.21101,-0.52775 0.43209,-0.83929 0.29864,-0.42082 0.74227,-0.68796 1.44353,-0.86925 0.39087,-0.10105 0.48102,-0.18524 0.33056,-0.30872 -0.16383,-0.13447 -0.39827,-0.17449 -1.00621,-0.17178 -0.45677,0.002 -0.64541,0.0203 -0.88786,0.086 -0.60201,0.16309 -1.00076,0.41529 -1.3209,0.83543 -0.34727,0.45573 -0.89244,1.40686 -1.00711,1.75702 -0.0763,0.23293 -0.60574,1.13283 -0.90007,1.52981 -0.25431,0.343 -0.68082,0.75345 -0.99171,0.95439 -0.33377,0.21573 -0.89397,0.39453 -1.43235,0.45717 -0.28584,0.0333 -0.97957,0.0509 -1.98,0.0504 -1.61671,-8.3e-4 -2.19358,-0.0398 -3.26,-0.22009 -1.41503,-0.23924 -2.04492,-0.4638 -2.64,-0.94114 -0.154,-0.12353 -0.343,-0.2536 -0.42,-0.28905 -0.24778,-0.11405 -0.71011,-0.44009 -0.91593,-0.64591 -0.26481,-0.26481 -0.39013,-0.45287 -0.65324,-0.98026 -0.27168,-0.54459 -0.33419,-0.73351 -0.41027,-1.24 -0.10745,-0.71527 -0.0716,-2.89041 0.063,-3.82 0.1262,-0.87182 0.39341,-1.00972 2.55649,-1.31934 0.627,-0.0897 1.3449,-0.20905 1.59533,-0.26512 0.80817,-0.18094 1.54644,-0.47385 2.39556,-0.95043 0.58373,-0.32762 0.58325,-0.32769 1.36926,0.20269 0.3974,0.26817 0.78978,0.44782 1.27283,0.58278 0.44751,0.12502 1.6618,0.12291 2.48702,-0.004 1.09188,-0.16836 1.63315,-0.34742 2.45366,-0.81171 0.46079,-0.26074 0.46216,-0.26186 0.43799,-0.35429 -0.0259,-0.0992 -0.18286,-0.14775 -0.65165,-0.2015 -0.35177,-0.0403 -1.54082,-0.22261 -2.1,-0.32192 -0.37478,-0.0666 -0.62512,-0.20252 -0.97448,-0.52924 -0.17612,-0.16471 -0.38442,-0.34843 -0.46287,-0.40827 -0.0785,-0.0598 -0.14238,-0.12917 -0.14204,-0.15406 0.001,-0.0743 0.39699,-0.34606 0.73939,-0.50742 0.33717,-0.15889 0.63506,-0.25297 1.26,-0.39792 0.53797,-0.12478 2.01286,-0.61729 2.30842,-0.77084 0.25692,-0.13349 0.91738,-0.68675 1.37158,-1.14897 0.17399,-0.17706 0.33011,-0.39346 0.47194,-0.65418 0.11657,-0.21427 0.32123,-0.55526 0.4548,-0.75776 0.30474,-0.46198 0.35909,-0.5881 0.47759,-1.10826 0.0786,-0.34478 0.0951,-0.52366 0.0924,-0.9999 -0.004,-0.69885 -0.0417,-1.04 -0.115,-1.04 -0.0843,0 -0.1778,0.17815 -0.24453,0.46585 -0.0341,0.14711 -0.0905,0.32298 -0.12533,0.39081 -0.10903,0.21243 -0.69778,0.78395 -1.03186,1.00167 -0.176,0.1147 -0.482,0.358 -0.68,0.54068 -0.88762,0.81892 -1.21136,0.90703 -3.68,1.00156 -1.26185,0.0483 -1.53869,0.0798 -2.0852,0.23708 -0.2227,0.0641 -0.52917,0.12878 -0.68104,0.14374 l -0.27614,0.0272 -0.17148,-0.24447 c -0.22316,-0.31813 -0.42647,-0.76293 -0.68751,-1.50413 -0.89648,-2.54544 -0.96366,-2.69304 -1.4662,-3.22111 -0.36664,-0.38529 -0.69871,-0.64468 -1.10711,-0.86483 l -0.24532,-0.13224 47.81997,-9.1e-4 47.81996,-9.1e-4 -8.77996,8.79 c -4.82898,4.8345 -13.94595,13.9605 -20.25994,20.28 l -11.47998,11.49 h -23.2691 -23.26911 z m 96.4762,-9.92 c 5.49998,-5.5055 14.61696,-14.6315 20.25994,-20.28 l 10.25997,-10.27 h 39.38575 c 31.47105,0 39.38985,0.0101 39.40615,0.05 0.0112,0.0275 0.24892,0.581 0.52822,1.23 3.11328,7.23433 5.64201,14.18365 7.85986,21.6 1.73553,5.80352 3.01677,10.89196 4.33339,17.21 l 0.0979,0.47 h -36.31182 -36.31182 l 0.0197,-0.17 c 0.20307,-1.75068 0.6442,-3.8497 0.98577,-4.69054 0.38251,-0.94163 0.91352,-2.02726 1.35951,-2.77946 0.70867,-1.19526 2.09359,-3.26341 2.57121,-3.83968 0.66182,-0.79852 1.68613,-2.2188 1.75335,-2.43115 0.0476,-0.15022 1.04655,-1.61837 1.68134,-2.47094 1.31919,-1.77175 1.90866,-2.41616 2.88149,-3.15005 1.07102,-0.80795 1.21035,-0.95631 1.98,-2.10818 0.82737,-1.23825 1.15256,-1.57722 1.94854,-2.03104 0.46011,-0.26233 0.71981,-0.44449 1.81686,-1.27443 0.70151,-0.53071 2.006,-1.40075 2.3746,-1.58377 0.11,-0.0546 0.434,-0.17544 0.72,-0.26848 0.71041,-0.23112 1.01946,-0.39895 1.36386,-0.74065 0.22946,-0.22766 0.32394,-0.36242 0.49299,-0.70317 l 0.20912,-0.42153 0.043,-0.59072 c 0.0513,-0.70504 0.01,-1.15821 -0.13324,-1.45022 -0.26876,-0.54931 -1.05,-1.05107 -1.64262,-1.05501 -0.10089,-6.7e-4 -0.18796,-0.0355 -0.27787,-0.11098 l -0.13095,-0.11 -1.22212,0.003 c -1.88803,0.004 -2.4388,0.0865 -3.303,0.4941 -0.64255,0.30309 -0.78355,0.34187 -1.23913,0.34081 -0.32658,-7.6e-4 -0.50646,-0.0279 -0.98,-0.14774 -0.72837,-0.18435 -1.03939,-0.21709 -2.60044,-0.27369 -1.35263,-0.049 -1.9309,-0.0333 -2.27956,0.0622 -0.30887,0.0845 -0.75972,0.16463 -1.478,0.26257 -1.12275,0.15309 -1.67985,0.29404 -2.15532,0.54529 -0.13933,0.0736 -0.27507,0.13387 -0.30164,0.13387 -0.0266,0 -0.19109,0.0902 -0.3656,0.20035 -0.1745,0.11019 -0.48876,0.26611 -0.69836,0.34649 -0.51461,0.19733 -2.06505,0.97285 -2.46108,1.23101 -0.176,0.11472 -0.61179,0.44255 -0.96843,0.72849 -0.35663,0.28594 -0.86063,0.67045 -1.12,0.85446 -1.11214,0.78904 -2.57266,2.06019 -4.25056,3.69947 -0.49556,0.48415 -1.08101,1.03481 -1.30101,1.22368 -0.22,0.18888 -0.67583,0.60275 -1.01296,0.91973 -1.76707,1.66143 -2.34621,2.1703 -3.56704,3.13423 -1.16405,0.9191 -2.45603,1.81465 -3.22,2.23199 -0.22,0.12018 -0.67,0.39484 -1,0.61036 -1.2732,0.8315 -2.21214,1.35964 -3.12,1.75494 -0.65116,0.28352 -2.9768,1.48561 -3.94,2.03652 -0.85114,0.48682 -1.72076,1.0851 -2.40501,1.65461 -1.02754,0.85522 -1.5141,1.44285 -2.34625,2.83367 -0.57892,0.96756 -0.7878,1.47171 -0.90844,2.19252 -0.13994,0.83614 -0.11194,1.36153 0.11565,2.17027 0.0747,0.26553 0.20241,0.77668 0.28375,1.13588 0.12166,0.5373 0.3077,1.18136 0.44331,1.53476 0.0238,0.062 -1.07186,0.0666 -16.0487,0.0666 h -16.07425 z m -109.1289,-22.39048 c -0.25041,-0.0366 -0.47948,-0.14869 -0.58064,-0.28419 -0.0645,-0.0864 -0.0787,-0.22231 -0.10989,-1.05725 -0.0197,-0.52695 -0.0579,-1.21711 -0.085,-1.5337 -0.0451,-0.52888 -0.0436,-0.57964 0.0186,-0.62513 0.12687,-0.0928 0.91094,-0.18983 1.68573,-0.20868 1.14766,-0.0279 2.02947,0.1115 2.56206,0.40506 0.28475,0.15695 0.37153,0.29319 0.51274,0.80499 0.0545,0.19766 0.19958,0.71938 0.32231,1.15938 0.22947,0.82266 0.24841,0.9195 0.18722,0.95733 -0.0526,0.0325 -0.99779,0.16587 -1.84433,0.26027 -1.36198,0.15188 -2.20122,0.19021 -2.66887,0.12192 z"
         id="path3" />
      <path
         style="fill:#e1245a"
         d="m 144.68,97.634021 c 0.323,-0.269117 3.24968,-2.400917 4.78,-3.481766 9.6178,-6.792948 20.01997,-12.861593 30.36153,-17.712971 2.84863,-1.336339 7.19462,-3.276464 7.23933,-3.231762 0.009,0.0085 -0.01,0.08685 -0.0409,0.174009 -0.20735,0.58216 0.25117,2.511499 0.86945,3.658469 0.37894,0.702969 2.89204,4.544292 3.52718,5.391363 0.16964,0.226249 0.50783,0.730249 0.75153,1.12 0.24369,0.38975 0.82145,1.284637 1.28389,1.988637 1.51681,2.309119 1.99973,3.117411 2.19128,3.667742 0.14602,0.419502 0.14991,0.699182 0.0167,1.197836 -0.13652,0.510975 -0.62785,2.904293 -0.76255,3.714422 -0.17312,1.041285 -0.13341,1.6699 0.14277,2.26 0.0618,0.132 0.13823,0.303 0.16989,0.38 0.0317,0.077 0.17284,0.281365 0.31375,0.454144 0.1409,0.172779 0.28918,0.357279 0.32952,0.41 l 0.0733,0.09586 -25.67333,-0.0013 -25.67334,-0.0013 z M 215.11849,97.55 c -0.005,-0.536385 -0.0833,-2.02016 -0.1361,-2.57 -0.0679,-0.70753 -0.20267,-2.814451 -0.24178,-3.78 -0.0611,-1.50795 -0.49418,-5.127935 -0.73938,-6.18 -0.11397,-0.489034 -0.15452,-0.84695 -0.22068,-1.948008 -0.0334,-0.556596 -0.0888,-1.316925 -0.12291,-1.689621 -0.0519,-0.56629 -0.0601,-1.269516 -0.0499,-4.28 0.0133,-3.919617 0.0108,-3.975495 -0.20865,-4.622371 -0.0634,-0.187 -0.13549,-0.455298 -0.16012,-0.596217 -0.13507,-0.772872 -0.52153,-1.219227 -1.14021,-1.316905 -0.87589,-0.138288 -1.6801,0.462097 -1.89286,1.413122 -0.0635,0.28363 -0.1561,1.197407 -0.20683,2.04 -0.0318,0.529093 -0.0309,1.064694 0.004,2.02 0.0349,0.967574 0.0356,1.455218 0.002,1.907003 -0.0245,0.333852 -0.0548,1.719852 -0.0672,3.08 -0.024,2.621291 -0.0551,3.268907 -0.16185,3.37175 -0.0725,0.06989 -0.0685,0.074 -0.49324,-0.507042 -0.27811,-0.380494 -0.57301,-0.626357 -1.02282,-0.852741 -0.37246,-0.187457 -0.75694,-0.271173 -1.40816,-0.306618 -0.39862,-0.0217 -0.47821,-0.01438 -0.72,0.0662 -0.72746,0.242442 -1.18972,0.603177 -1.36671,1.06654 -0.0926,0.24239 -0.42987,0.816225 -0.47797,0.813192 -0.0149,-9.42e-4 -0.17116,-0.300453 -0.34716,-0.66558 -0.43662,-0.905809 -0.62911,-1.197875 -0.91417,-1.38709 -0.38593,-0.256165 -0.50152,-0.279185 -1.28045,-0.255019 -0.94452,0.0293 -1.41118,0.13996 -1.93919,0.459823 -0.36662,0.222104 -0.61253,0.451096 -0.7442,0.693019 -0.1026,0.188498 -0.12021,0.269747 -0.1397,0.6442 -0.0124,0.237692 -0.0426,0.448818 -0.068,0.474133 -0.15809,0.15786 -0.66183,-0.469906 -2.74279,-3.418139 -0.86424,-1.224422 -1.18114,-1.697612 -1.45038,-2.165692 -0.10938,-0.190164 -0.29979,-0.456495 -0.42312,-0.591848 -0.21214,-0.23281 -0.75481,-0.909197 -1.09147,-1.360404 -0.14041,-0.18818 -0.46719,-0.724067 -0.84499,-1.385691 -0.0817,-0.143 -0.22341,-0.372105 -0.315,-0.509121 -0.0916,-0.137017 -0.22673,-0.355204 -0.30029,-0.484861 -0.1607,-0.283221 -0.29926,-0.451663 -1.01485,-1.233676 -0.6192,-0.676668 -0.73664,-0.770149 -1.17122,-0.932273 -0.1697,-0.06331 -0.32017,-0.126777 -0.33437,-0.141034 -0.0817,-0.08206 0.21942,-0.214953 2.67419,-1.180157 9.21302,-3.62251 18.85259,-6.633451 27.98,-8.739619 7.65332,-1.766018 13.84316,-2.86322 21.64,-3.835875 6.45006,-0.804645 13.14144,-1.275907 20.84,-1.467726 2.04311,-0.05091 7.70623,-0.0263 9.58,0.04163 9.08869,0.329488 15.28757,0.849518 22.96,1.926136 5.64338,0.791896 11.57876,1.902823 17.63815,3.301338 11.66707,2.692777 23.58436,6.649938 34.92194,11.595911 9.06972,3.95663 17.87091,8.61235 26.39991,13.965233 4.55693,2.85997 9.82866,6.47732 13.7361,9.425419 l 0.3561,0.268671 -86.3861,0 H 215.12 Z"
         id="path2" />
    </g>
  </g>
</svg>
